<svg width="425" height="150" viewBox="0 0 425 150" xmlns="http://www.w3.org/2000/svg">
  <rect id="C-84" x="12" y="12" width="400" height="5" fill="#ffffff" stroke="#cccccc" stroke-width="1"/>
  <rect id="B-83" x="12" y="17" width="400" height="5" fill="#ffffff" stroke="#cccccc" stroke-width="1"/>
  <rect id="Bb-82" x="12" y="22" width="400" height="5" fill="#7f7f7f" stroke="#cccccc" stroke-width="1"/>
  <rect id="A-81" x="12" y="27" width="400" height="5" fill="#ffffff" stroke="#cccccc" stroke-width="1"/>
  <rect id="Ab-80" x="12" y="32" width="400" height="5" fill="#7f7f7f" stroke="#cccccc" stroke-width="1"/>
  <rect id="G-79" x="12" y="37" width="400" height="5" fill="#ffffff" stroke="#cccccc" stroke-width="1"/>
  <rect id="F#-78" x="12" y="42" width="400" height="5" fill="#7f7f7f" stroke="#cccccc" stroke-width="1"/>
  <rect id="F-77" x="12" y="47" width="400" height="5" fill="#ffffff" stroke="#cccccc" stroke-width="1"/>
  <rect id="E-76" x="12" y="52" width="400" height="5" fill="#ffffff" stroke="#cccccc" stroke-width="1"/>
  <rect id="Eb-75" x="12" y="57" width="400" height="5" fill="#7f7f7f" stroke="#cccccc" stroke-width="1"/>
  <rect id="D-74" x="12" y="62" width="400" height="5" fill="#ffffff" stroke="#cccccc" stroke-width="1"/>
  <rect id="C#-73" x="12" y="67" width="400" height="5" fill="#7f7f7f" stroke="#cccccc" stroke-width="1"/>
  <rect id="C-72" x="12" y="72" width="400" height="5" fill="#ffffff" stroke="#cccccc" stroke-width="1"/>
  <rect id="B-71" x="12" y="77" width="400" height="5" fill="#ffffff" stroke="#cccccc" stroke-width="1"/>
  <rect id="Bb-70" x="12" y="82" width="400" height="5" fill="#7f7f7f" stroke="#cccccc" stroke-width="1"/>
  <rect id="A-69" x="12" y="87" width="400" height="5" fill="#ffffff" stroke="#cccccc" stroke-width="1"/>
  <rect id="Ab-68" x="12" y="92" width="400" height="5" fill="#7f7f7f" stroke="#cccccc" stroke-width="1"/>
  <rect id="G-67" x="12" y="97" width="400" height="5" fill="#ffffff" stroke="#cccccc" stroke-width="1"/>
  <rect id="F#-66" x="12" y="102" width="400" height="5" fill="#7f7f7f" stroke="#cccccc" stroke-width="1"/>  
  <rect id="F-65" x="12" y="107" width="400" height="5" fill="#ffffff" stroke="#cccccc" stroke-width="1"/>
  <rect id="E-64" x="12" y="112" width="400" height="5" fill="#ffffff" stroke="#cccccc" stroke-width="1"/>
  <rect id="Eb-63" x="12" y="117" width="400" height="5" fill="#7f7f7f" stroke="#cccccc" stroke-width="1"/>
  <rect id="D-62" x="12" y="122" width="400" height="5" fill="#ffffff" stroke="#cccccc" stroke-width="1"/>
  <rect id="C#-61" x="12" y="127" width="400" height="5" fill="#7f7f7f" stroke="#cccccc" stroke-width="1"/>
  <rect id="C-60" x="12" y="132" width="400" height="5" fill="#ffffff" stroke="#cccccc" stroke-width="1"/>

<!---  notes -->
<rect x="12" y="72" width="80" height="5" fill="#ff00ff" stroke="#cccccc" stroke-width="1"/>
<!--- four up-->
<rect x="12" y="52" width="80" height="5" fill="#ffa500" stroke="#cccccc" stroke-width="1"/>
<rect x="12" y="37" width="80" height="5" fill="#ff77ff" stroke="#cccccc" stroke-width="1"/>
<rect x="12" y="27" width="80" height="5" fill="#00ffff" stroke="#cccccc" stroke-width="1"/>
<rect x="12" y="12" width="80" height="5" fill="#ff77ff" stroke="#cccccc" stroke-width="1"/>
<!--- four down -->
<rect x="12" y="87" width="80" height="5" fill="#ffa500" stroke="#cccccc" stroke-width="1"/>
<rect x="12" y="107" width="80" height="5" fill="#ff77ff" stroke="#cccccc" stroke-width="1"/>
<rect x="12" y="117" width="80" height="5" fill="#00ffff" stroke="#cccccc" stroke-width="1"/>
<rect x="12" y="132" width="80" height="5" fill="#ff77ff" stroke="#cccccc" stroke-width="1"/>

<!-- note -->
<rect x="92" y="62" width="80" height="5" fill="#ff00ff" stroke="#cccccc" stroke-width="1"/>
<!-- up -->
<rect x="92" y="47" width="80" height="5" fill="#ffa500" stroke="#cccccc" stroke-width="1"/>
<rect x="92" y="27" width="80" height="5" fill="#ff77ff" stroke="#cccccc" stroke-width="1"/>
<rect x="92" y="17" width="80" height="5" fill="#00ffff" stroke="#cccccc" stroke-width="1"/>

<!-- down -->
<rect x="92" y="77" width="80" height="5" fill="#ffa500" stroke="#cccccc" stroke-width="1"/>
<rect x="92" y="97" width="80" height="5" fill="#ff77ff" stroke="#cccccc" stroke-width="1"/>
<rect x="92" y="107" width="80" height="5" fill="#00ffff" stroke="#cccccc" stroke-width="1"/>
<rect x="92" y="122" width="80" height="5" fill="#ff77ff" stroke="#cccccc" stroke-width="1"/>

<!-- note -->
<rect x="172" y="52" width="80" height="5" fill="#ff00ff" stroke="#cccccc" stroke-width="1"/>
<!-- up -->
<rect x="172" y="37" width="80" height="5" fill="#ffa500" stroke="#cccccc" stroke-width="1"/>
<rect x="172" y="17" width="80" height="5" fill="#ff77ff" stroke="#cccccc" stroke-width="1"/>

<!-- down-->
<rect x="172" y="72" width="80" height="5" fill="#ffa500" stroke="#cccccc" stroke-width="1"/>
<rect x="172" y="87" width="80" height="5" fill="#ff77ff" stroke="#cccccc" stroke-width="1"/>
<rect x="172" y="97" width="80" height="5" fill="#00ffff" stroke="#cccccc" stroke-width="1"/>
<rect x="172" y="112" width="80" height="5" fill="#ff77ff" stroke="#cccccc" stroke-width="1"/>
<rect x="172" y="132" width="80" height="5" fill="#ffa500" stroke="#cccccc" stroke-width="1"/>

<!-- note -->
<rect x="252" y="47" width="80" height="5" fill="#ff00ff" stroke="#cccccc" stroke-width="1"/>
<!-- up -->
<rect x="252" y="27" width="80" height="5" fill="#ffa500" stroke="#cccccc" stroke-width="1"/>
<rect x="252" y="12" width="80" height="5" fill="#ff77ff" stroke="#cccccc" stroke-width="1"/>

<!-- down -->
<rect x="252" y="62" width="80" height="5" fill="#ffa500" stroke="#cccccc" stroke-width="1"/>
<rect x="252" y="77" width="80" height="5" fill="#ff77ff" stroke="#cccccc" stroke-width="1"/>
<rect x="252" y="87" width="80" height="5" fill="#00ffff" stroke="#cccccc" stroke-width="1"/>
<rect x="252" y="107" width="80" height="5" fill="#ff77ff" stroke="#cccccc" stroke-width="1"/>
<rect x="252" y="122" width="80" height="5" fill="#ffa500" stroke="#cccccc" stroke-width="1"/>

<!-- note -->
<rect x="332" y="72" width="80" height="5" fill="#ff00ff" stroke="#cccccc" stroke-width="1"/>
<!--- four up-->
<rect x="332" y="52" width="80" height="5" fill="#ffa500" stroke="#cccccc" stroke-width="1"/>
<rect x="332" y="37" width="80" height="5" fill="#ff77ff" stroke="#cccccc" stroke-width="1"/>
<rect x="332" y="27" width="80" height="5" fill="#00ffff" stroke="#cccccc" stroke-width="1"/>
<rect x="332" y="12" width="80" height="5" fill="#ff77ff" stroke="#cccccc" stroke-width="1"/>
<!--- four down -->
<rect x="332" y="87" width="80" height="5" fill="#ffa500" stroke="#cccccc" stroke-width="1"/>
<rect x="332" y="107" width="80" height="5" fill="#ff77ff" stroke="#cccccc" stroke-width="1"/>
<rect x="332" y="117" width="80" height="5" fill="#00ffff" stroke="#cccccc" stroke-width="1"/>
<rect x="332" y="132" width="80" height="5" fill="#ff77ff" stroke="#cccccc" stroke-width="1"/>






  <!-- Vertical grid lines -->
  <line x1="12" y1="12" x2="12" y2="137" stroke="#000000" stroke-width="1.5"/>
  <line x1="92" y1="12" x2="92" y2="137" stroke="#000000" stroke-width="1.5"/>
  <line x1="172" y1="12" x2="172" y2="137" stroke="#000000" stroke-width="1.5"/>
  <line x1="252" y1="12" x2="252" y2="137" stroke="#000000" stroke-width="1.5"/>
  <line x1="332" y1="12" x2="332" y2="137" stroke="#000000" stroke-width="1.5"/>

  <!-- Thin black grid lines -->
  <line x1="32" y1="12" x2="32" y2="137" stroke="#000000" stroke-width="0.5"/>
  <line x1="52" y1="12" x2="52" y2="137" stroke="#000000" stroke-width="0.5"/>
  <line x1="72" y1="12" x2="72" y2="137" stroke="#000000" stroke-width="0.5"/>
  <line x1="112" y1="12" x2="112" y2="137" stroke="#000000" stroke-width="0.5"/>
  <line x1="132" y1="12" x2="132" y2="137" stroke="#000000" stroke-width="0.5"/>
  <line x1="152" y1="12" x2="152" y2="137" stroke="#000000" stroke-width="0.5"/>
  <line x1="192" y1="12" x2="192" y2="137" stroke="#000000" stroke-width="0.5"/>
  <line x1="212" y1="12" x2="212" y2="137" stroke="#000000" stroke-width="0.5"/>
  <line x1="232" y1="12" x2="232" y2="137" stroke="#000000" stroke-width="0.5"/>
  <line x1="272" y1="12" x2="272" y2="137" stroke="#000000" stroke-width="0.5"/>
  <line x1="292" y1="12" x2="292" y2="137" stroke="#000000" stroke-width="0.5"/>
  <line x1="312" y1="12" x2="312" y2="137" stroke="#000000" stroke-width="0.5"/>
  <line x1="352" y1="12" x2="352" y2="137" stroke="#000000" stroke-width="0.5"/>
  <line x1="372" y1="12" x2="372" y2="137" stroke="#000000" stroke-width="0.5"/>
  <line x1="392" y1="12" x2="392" y2="137" stroke="#000000" stroke-width="0.5"/>
</svg>
