<?xml version="1.0" encoding="UTF-8" standalone="no"?>
<!DOCTYPE svg PUBLIC "-//W3C//DTD SVG 1.1//EN"
 "http://www.w3.org/Graphics/SVG/1.1/DTD/svg11.dtd">
<!-- Generated by graphviz version 16.1.0 (20260904.0139)
 -->
<!-- Pages: 1 -->
<svg width="1681pt" height="1484pt"
 viewBox="0.00 0.00 1681.00 1484.00" xmlns="http://www.w3.org/2000/svg" xmlns:xlink="http://www.w3.org/1999/xlink">
<g id="graph0" class="graph" transform="scale(1 1) rotate(0) translate(4 1480)">
<polygon fill="white" stroke="none" points="-4,4 -4,-1480 1676.88,-1480 1676.88,4 -4,4"/>
<!-- Antrim -->
<g id="node1" class="node">
<title>Antrim</title>
<ellipse fill="lightblue" stroke="black" cx="1128.28" cy="-1386" rx="47.26" ry="18"/>
<text xml:space="preserve" text-anchor="middle" x="1128.28" y="-1380.95" font-family="Times New Roman,serif" font-size="14.00">Aontroim</text>
</g>
<!-- Down -->
<g id="node9" class="node">
<title>Down</title>
<ellipse fill="lightblue" stroke="black" cx="1272.28" cy="-1314" rx="40.6" ry="18"/>
<text xml:space="preserve" text-anchor="middle" x="1272.28" y="-1308.95" font-family="Times New Roman,serif" font-size="14.00">An Dún</text>
</g>
<!-- Antrim&#45;&#45;Down -->
<g id="edge2" class="edge">
<title>Antrim&#45;&#45;Down</title>
<path fill="none" stroke="black" d="M1157.42,-1371.43C1183.06,-1358.61 1220.1,-1340.09 1245.13,-1327.57"/>
</g>
<!-- Armagh -->
<g id="node2" class="node">
<title>Armagh</title>
<ellipse fill="lightblue" stroke="black" cx="1416.28" cy="-1170" rx="58" ry="18"/>
<text xml:space="preserve" text-anchor="middle" x="1416.28" y="-1164.95" font-family="Times New Roman,serif" font-size="14.00">Ard Mhacha</text>
</g>
<!-- Louth -->
<g id="node20" class="node">
<title>Louth</title>
<ellipse fill="lightblue" stroke="black" cx="1560.28" cy="-954" rx="27" ry="18"/>
<text xml:space="preserve" text-anchor="middle" x="1560.28" y="-948.95" font-family="Times New Roman,serif" font-size="14.00">Lú</text>
</g>
<!-- Armagh&#45;&#45;Louth -->
<g id="edge4" class="edge">
<title>Armagh&#45;&#45;Louth</title>
<path fill="none" stroke="black" d="M1428.31,-1151.96C1455.75,-1110.79 1522.66,-1010.44 1549.18,-970.65"/>
</g>
<!-- Monaghan -->
<g id="node23" class="node">
<title>Monaghan</title>
<ellipse fill="lightgreen" stroke="black" cx="1128.28" cy="-1026" rx="56.98" ry="18"/>
<text xml:space="preserve" text-anchor="middle" x="1128.28" y="-1020.95" font-family="Times New Roman,serif" font-size="14.00">Muineachán</text>
</g>
<!-- Armagh&#45;&#45;Monaghan -->
<g id="edge46" class="edge">
<title>Armagh&#45;&#45;Monaghan</title>
<path fill="none" stroke="black" d="M1385.19,-1154.45C1329.77,-1126.74 1214.57,-1069.14 1159.25,-1041.48"/>
</g>
<!-- Tyrone -->
<g id="node28" class="node">
<title>Tyrone</title>
<ellipse fill="lightgreen" stroke="black" cx="840.28" cy="-1170" rx="55.45" ry="18"/>
<text xml:space="preserve" text-anchor="middle" x="840.28" y="-1164.95" font-family="Times New Roman,serif" font-size="14.00">Tír Eoghain</text>
</g>
<!-- Armagh&#45;&#45;Tyrone -->
<g id="edge45" class="edge">
<title>Armagh&#45;&#45;Tyrone</title>
<path fill="none" stroke="black" d="M1357.88,-1170C1246.48,-1170 1005.02,-1170 895.86,-1170"/>
</g>
<!-- Carlow -->
<g id="node3" class="node">
<title>Carlow</title>
<ellipse fill="lightgreen" stroke="black" cx="1128.28" cy="-450" rx="54.93" ry="18"/>
<text xml:space="preserve" text-anchor="middle" x="1128.28" y="-444.95" font-family="Times New Roman,serif" font-size="14.00">Ceatharlach</text>
</g>
<!-- Kildare -->
<g id="node14" class="node">
<title>Kildare</title>
<ellipse fill="lightgreen" stroke="black" cx="1272.28" cy="-666" rx="45.21" ry="18"/>
<text xml:space="preserve" text-anchor="middle" x="1272.28" y="-660.95" font-family="Times New Roman,serif" font-size="14.00">Cill Dara</text>
</g>
<!-- Carlow&#45;&#45;Kildare -->
<g id="edge69" class="edge">
<title>Carlow&#45;&#45;Kildare</title>
<path fill="none" stroke="black" d="M1140.31,-468.04C1167.48,-508.8 1233.34,-607.59 1260.39,-648.16"/>
</g>
<!-- Kilkenny -->
<g id="node15" class="node">
<title>Kilkenny</title>
<ellipse fill="lightgreen" stroke="black" cx="912.28" cy="-342" rx="65.68" ry="18"/>
<text xml:space="preserve" text-anchor="middle" x="912.28" y="-336.95" font-family="Times New Roman,serif" font-size="14.00">Cill Chainnigh</text>
</g>
<!-- Carlow&#45;&#45;Kilkenny -->
<g id="edge70" class="edge">
<title>Carlow&#45;&#45;Kilkenny</title>
<path fill="none" stroke="black" d="M1097.79,-434.76C1057.21,-414.46 985.76,-378.74 944.37,-358.05"/>
</g>
<!-- Cavan -->
<g id="node4" class="node">
<title>Cavan</title>
<ellipse fill="lightgreen" stroke="black" cx="552.28" cy="-1026" rx="52.89" ry="18"/>
<text xml:space="preserve" text-anchor="middle" x="552.28" y="-1020.95" font-family="Times New Roman,serif" font-size="14.00">An Cabhán</text>
</g>
<!-- Longford -->
<g id="node19" class="node">
<title>Longford</title>
<ellipse fill="lightgreen" stroke="black" cx="408.28" cy="-882" rx="43.67" ry="18"/>
<text xml:space="preserve" text-anchor="middle" x="408.28" y="-876.95" font-family="Times New Roman,serif" font-size="14.00">Longfort</text>
</g>
<!-- Cavan&#45;&#45;Longford -->
<g id="edge55" class="edge">
<title>Cavan&#45;&#45;Longford</title>
<path fill="none" stroke="black" d="M534.91,-1008.63C507.08,-980.8 452.85,-926.57 425.26,-898.98"/>
</g>
<!-- Cavan&#45;&#45;Monaghan -->
<g id="edge54" class="edge">
<title>Cavan&#45;&#45;Monaghan</title>
<path fill="none" stroke="black" d="M605.44,-1026C713.77,-1026 959.3,-1026 1071.01,-1026"/>
</g>
<!-- Clare -->
<g id="node5" class="node">
<title>Clare</title>
<ellipse fill="lightblue" stroke="black" cx="264.28" cy="-306" rx="27" ry="18"/>
<text xml:space="preserve" text-anchor="middle" x="264.28" y="-300.95" font-family="Times New Roman,serif" font-size="14.00">Clár</text>
</g>
<!-- Galway -->
<g id="node12" class="node">
<title>Galway</title>
<ellipse fill="lightblue" stroke="black" cx="120.28" cy="-522" rx="44.19" ry="18"/>
<text xml:space="preserve" text-anchor="middle" x="120.28" y="-516.95" font-family="Times New Roman,serif" font-size="14.00">Gaillimh</text>
</g>
<!-- Clare&#45;&#45;Galway -->
<g id="edge14" class="edge">
<title>Clare&#45;&#45;Galway</title>
<path fill="none" stroke="black" d="M253.22,-322.59C226.61,-362.5 159.22,-463.58 131.98,-504.45"/>
</g>
<!-- Tipperary -->
<g id="node27" class="node">
<title>Tipperary</title>
<ellipse fill="lightgreen" stroke="black" cx="768.28" cy="-342" rx="68.24" ry="18"/>
<text xml:space="preserve" text-anchor="middle" x="768.28" y="-336.95" font-family="Times New Roman,serif" font-size="14.00">Tiobraid Árann</text>
</g>
<!-- Clare&#45;&#45;Tipperary -->
<g id="edge33" class="edge">
<title>Clare&#45;&#45;Tipperary</title>
<path fill="none" stroke="black" d="M291.38,-307.94C368.36,-313.43 590,-329.27 701.93,-337.26"/>
</g>
<!-- Cork -->
<g id="node6" class="node">
<title>Cork</title>
<ellipse fill="lightblue" stroke="black" cx="840.28" cy="-18" rx="44.7" ry="18"/>
<text xml:space="preserve" text-anchor="middle" x="840.28" y="-12.95" font-family="Times New Roman,serif" font-size="14.00">Corcaigh</text>
</g>
<!-- Kerry -->
<g id="node13" class="node">
<title>Kerry</title>
<ellipse fill="lightblue" stroke="black" cx="588.28" cy="-54" rx="36.51" ry="18"/>
<text xml:space="preserve" text-anchor="middle" x="588.28" y="-48.95" font-family="Times New Roman,serif" font-size="14.00">Ciarrai</text>
</g>
<!-- Cork&#45;&#45;Kerry -->
<g id="edge11" class="edge">
<title>Cork&#45;&#45;Kerry</title>
<path fill="none" stroke="black" d="M797.82,-24.07C748.86,-31.06 669.29,-42.43 623.58,-48.96"/>
</g>
<!-- Limerick -->
<g id="node18" class="node">
<title>Limerick</title>
<ellipse fill="lightblue" stroke="black" cx="408.28" cy="-162" rx="52.89" ry="18"/>
<text xml:space="preserve" text-anchor="middle" x="408.28" y="-156.95" font-family="Times New Roman,serif" font-size="14.00">Luimneach</text>
</g>
<!-- Cork&#45;&#45;Limerick -->
<g id="edge31" class="edge">
<title>Cork&#45;&#45;Limerick</title>
<path fill="none" stroke="black" d="M805.29,-29.66C725.35,-56.31 529.79,-121.5 446.67,-149.2"/>
</g>
<!-- Cork&#45;&#45;Tipperary -->
<g id="edge30" class="edge">
<title>Cork&#45;&#45;Tipperary</title>
<path fill="none" stroke="black" d="M836.2,-36.35C823.53,-93.38 784.92,-267.1 772.31,-323.85"/>
</g>
<!-- Derry -->
<g id="node7" class="node">
<title>Derry</title>
<ellipse fill="lightblue" stroke="black" cx="840.28" cy="-1458" rx="31.9" ry="18"/>
<text xml:space="preserve" text-anchor="middle" x="840.28" y="-1452.95" font-family="Times New Roman,serif" font-size="14.00">Doire</text>
</g>
<!-- Derry&#45;&#45;Antrim -->
<g id="edge1" class="edge">
<title>Derry&#45;&#45;Antrim</title>
<path fill="none" stroke="black" d="M869.75,-1450.63C921.79,-1437.62 1029.99,-1410.57 1088.56,-1395.93"/>
</g>
<!-- Derry&#45;&#45;Tyrone -->
<g id="edge44" class="edge">
<title>Derry&#45;&#45;Tyrone</title>
<path fill="none" stroke="black" d="M840.28,-1439.55C840.28,-1387.53 840.28,-1240.13 840.28,-1188.3"/>
</g>
<!-- Donegal -->
<g id="node8" class="node">
<title>Donegal</title>
<ellipse fill="lightblue" stroke="black" cx="552.28" cy="-1386" rx="61.08" ry="18"/>
<text xml:space="preserve" text-anchor="middle" x="552.28" y="-1380.95" font-family="Times New Roman,serif" font-size="14.00">Dún na nGall</text>
</g>
<!-- Donegal&#45;&#45;Derry -->
<g id="edge20" class="edge">
<title>Donegal&#45;&#45;Derry</title>
<path fill="none" stroke="black" d="M599.52,-1397.81C659.36,-1412.77 760.7,-1438.1 810.64,-1450.59"/>
</g>
<!-- Donegal&#45;&#45;Tyrone -->
<g id="edge43" class="edge">
<title>Donegal&#45;&#45;Tyrone</title>
<path fill="none" stroke="black" d="M574.88,-1369.05C628.72,-1328.67 764.06,-1227.17 817.79,-1186.87"/>
</g>
<!-- Down&#45;&#45;Armagh -->
<g id="edge3" class="edge">
<title>Down&#45;&#45;Armagh</title>
<path fill="none" stroke="black" d="M1289.08,-1297.2C1316.53,-1269.75 1370.74,-1215.55 1398.69,-1187.59"/>
</g>
<!-- Dublin -->
<g id="node10" class="node">
<title>Dublin</title>
<ellipse fill="lightblue" stroke="black" cx="1560.28" cy="-522" rx="75.41" ry="18"/>
<text xml:space="preserve" text-anchor="middle" x="1560.28" y="-516.95" font-family="Times New Roman,serif" font-size="14.00">Baile Atha Cliath</text>
</g>
<!-- Dublin&#45;&#45;Kildare -->
<g id="edge21" class="edge">
<title>Dublin&#45;&#45;Kildare</title>
<path fill="none" stroke="black" d="M1527.24,-538.52C1470.21,-567.03 1354.26,-625.01 1300.64,-651.82"/>
</g>
<!-- Wicklow -->
<g id="node32" class="node">
<title>Wicklow</title>
<ellipse fill="lightblue" stroke="black" cx="1416.28" cy="-306" rx="63.12" ry="18"/>
<text xml:space="preserve" text-anchor="middle" x="1416.28" y="-300.95" font-family="Times New Roman,serif" font-size="14.00">Cill Mhantáin</text>
</g>
<!-- Dublin&#45;&#45;Wicklow -->
<g id="edge7" class="edge">
<title>Dublin&#45;&#45;Wicklow</title>
<path fill="none" stroke="black" d="M1548.25,-503.96C1521.15,-463.3 1455.55,-364.9 1428.38,-324.15"/>
</g>
<!-- Fermanagh -->
<g id="node11" class="node">
<title>Fermanagh</title>
<ellipse fill="lightblue" stroke="black" cx="408.28" cy="-1314" rx="54.42" ry="18"/>
<text xml:space="preserve" text-anchor="middle" x="408.28" y="-1308.95" font-family="Times New Roman,serif" font-size="14.00">Fir Manach</text>
</g>
<!-- Fermanagh&#45;&#45;Cavan -->
<g id="edge42" class="edge">
<title>Fermanagh&#45;&#45;Cavan</title>
<path fill="none" stroke="black" d="M417.29,-1295.98C443.15,-1244.26 517.42,-1095.72 543.28,-1044.01"/>
</g>
<!-- Fermanagh&#45;&#45;Donegal -->
<g id="edge19" class="edge">
<title>Fermanagh&#45;&#45;Donegal</title>
<path fill="none" stroke="black" d="M438.82,-1329.27C462.93,-1341.32 496.44,-1358.08 520.79,-1370.25"/>
</g>
<!-- Fermanagh&#45;&#45;Tyrone -->
<g id="edge41" class="edge">
<title>Fermanagh&#45;&#45;Tyrone</title>
<path fill="none" stroke="black" d="M447,-1301.09C528.91,-1273.79 718.94,-1210.45 801.18,-1183.03"/>
</g>
<!-- Mayo -->
<g id="node21" class="node">
<title>Mayo</title>
<ellipse fill="lightblue" stroke="black" cx="48.28" cy="-738" rx="48.28" ry="18"/>
<text xml:space="preserve" text-anchor="middle" x="48.28" y="-732.95" font-family="Times New Roman,serif" font-size="14.00">Maigh Eo</text>
</g>
<!-- Galway&#45;&#45;Mayo -->
<g id="edge15" class="edge">
<title>Galway&#45;&#45;Mayo</title>
<path fill="none" stroke="black" d="M114.27,-540.04C100.71,-580.7 67.91,-679.1 54.33,-719.85"/>
</g>
<!-- Offaly -->
<g id="node24" class="node">
<title>Offaly</title>
<ellipse fill="lightgreen" stroke="black" cx="552.28" cy="-450" rx="53.4" ry="18"/>
<text xml:space="preserve" text-anchor="middle" x="552.28" y="-444.95" font-family="Times New Roman,serif" font-size="14.00">Uíbh Fhailí</text>
</g>
<!-- Galway&#45;&#45;Offaly -->
<g id="edge35" class="edge">
<title>Galway&#45;&#45;Offaly</title>
<path fill="none" stroke="black" d="M161.7,-515.1C242.06,-501.7 418.69,-472.26 504.12,-458.03"/>
</g>
<!-- Roscommon -->
<g id="node25" class="node">
<title>Roscommon</title>
<ellipse fill="lightgreen" stroke="black" cx="408.28" cy="-594" rx="57.49" ry="18"/>
<text xml:space="preserve" text-anchor="middle" x="408.28" y="-588.95" font-family="Times New Roman,serif" font-size="14.00">Ros Comáin</text>
</g>
<!-- Galway&#45;&#45;Roscommon -->
<g id="edge36" class="edge">
<title>Galway&#45;&#45;Roscommon</title>
<path fill="none" stroke="black" d="M158.52,-531.56C211.31,-544.76 306.36,-568.52 362.75,-582.62"/>
</g>
<!-- Galway&#45;&#45;Tipperary -->
<g id="edge34" class="edge">
<title>Galway&#45;&#45;Tipperary</title>
<path fill="none" stroke="black" d="M156.98,-511.81C267.42,-481.13 596.7,-389.66 720.51,-355.27"/>
</g>
<!-- Kerry&#45;&#45;Limerick -->
<g id="edge12" class="edge">
<title>Kerry&#45;&#45;Limerick</title>
<path fill="none" stroke="black" d="M564.75,-68.12C531.2,-88.25 469.83,-125.07 434.74,-146.12"/>
</g>
<!-- Laois -->
<g id="node16" class="node">
<title>Laois</title>
<ellipse fill="yellow" stroke="black" cx="840.28" cy="-738" rx="31.39" ry="18"/>
<text xml:space="preserve" text-anchor="middle" x="840.28" y="-732.95" font-family="Times New Roman,serif" font-size="14.00">Laois</text>
</g>
<!-- Kilkenny&#45;&#45;Laois -->
<g id="edge25" class="edge">
<title>Kilkenny&#45;&#45;Laois</title>
<path fill="none" stroke="black" d="M908.95,-360.31C896.89,-426.63 855.57,-653.88 843.57,-719.89"/>
</g>
<!-- Kilkenny&#45;&#45;Tipperary -->
<g id="edge26" class="edge">
<title>Kilkenny&#45;&#45;Tipperary</title>
<path fill="none" stroke="black" d="M846.18,-342C843.08,-342 839.96,-342 836.84,-342"/>
</g>
<!-- Waterford -->
<g id="node29" class="node">
<title>Waterford</title>
<ellipse fill="lightblue" stroke="black" cx="1128.28" cy="-90" rx="52.89" ry="18"/>
<text xml:space="preserve" text-anchor="middle" x="1128.28" y="-84.95" font-family="Times New Roman,serif" font-size="14.00">Port Láirge</text>
</g>
<!-- Kilkenny&#45;&#45;Waterford -->
<g id="edge28" class="edge">
<title>Kilkenny&#45;&#45;Waterford</title>
<path fill="none" stroke="black" d="M927.47,-324.28C967.13,-278.01 1073.47,-153.95 1113.11,-107.7"/>
</g>
<!-- Wexford -->
<g id="node31" class="node">
<title>Wexford</title>
<ellipse fill="lightblue" stroke="black" cx="1272.28" cy="-162" rx="62.61" ry="18"/>
<text xml:space="preserve" text-anchor="middle" x="1272.28" y="-156.95" font-family="Times New Roman,serif" font-size="14.00">Loch Garman</text>
</g>
<!-- Kilkenny&#45;&#45;Wexford -->
<g id="edge27" class="edge">
<title>Kilkenny&#45;&#45;Wexford</title>
<path fill="none" stroke="black" d="M944.54,-325.87C1013.06,-291.61 1172.37,-211.96 1240.48,-177.9"/>
</g>
<!-- Laois&#45;&#45;Carlow -->
<g id="edge65" class="edge">
<title>Laois&#45;&#45;Carlow</title>
<path fill="none" stroke="black" d="M856.17,-722.11C906.06,-672.22 1059.24,-519.04 1110.99,-467.29"/>
</g>
<!-- Laois&#45;&#45;Kildare -->
<g id="edge64" class="edge">
<title>Laois&#45;&#45;Kildare</title>
<path fill="none" stroke="black" d="M870.66,-732.94C946.33,-720.33 1143.37,-687.49 1230.17,-673.02"/>
</g>
<!-- Laois&#45;&#45;Offaly -->
<g id="edge67" class="edge">
<title>Laois&#45;&#45;Offaly</title>
<path fill="none" stroke="black" d="M824.39,-722.11C774.51,-672.22 621.32,-519.04 569.57,-467.29"/>
</g>
<!-- Laois&#45;&#45;Tipperary -->
<g id="edge66" class="edge">
<title>Laois&#45;&#45;Tipperary</title>
<path fill="none" stroke="black" d="M836.95,-719.69C824.89,-653.37 783.57,-426.12 771.57,-360.11"/>
</g>
<!-- Leitrim -->
<g id="node17" class="node">
<title>Leitrim</title>
<ellipse fill="lightblue" stroke="black" cx="264.28" cy="-1170" rx="45.21" ry="18"/>
<text xml:space="preserve" text-anchor="middle" x="264.28" y="-1164.95" font-family="Times New Roman,serif" font-size="14.00">Liatroma</text>
</g>
<!-- Leitrim&#45;&#45;Cavan -->
<g id="edge40" class="edge">
<title>Leitrim&#45;&#45;Cavan</title>
<path fill="none" stroke="black" d="M292.95,-1155.67C347.58,-1128.35 466.14,-1069.07 522,-1041.14"/>
</g>
<!-- Leitrim&#45;&#45;Fermanagh -->
<g id="edge18" class="edge">
<title>Leitrim&#45;&#45;Fermanagh</title>
<path fill="none" stroke="black" d="M281.36,-1187.08C308.93,-1214.65 362.93,-1268.65 390.77,-1296.49"/>
</g>
<!-- Leitrim&#45;&#45;Longford -->
<g id="edge39" class="edge">
<title>Leitrim&#45;&#45;Longford</title>
<path fill="none" stroke="black" d="M273.29,-1151.98C299.15,-1100.26 373.42,-951.72 399.28,-900.01"/>
</g>
<!-- Limerick&#45;&#45;Clare -->
<g id="edge13" class="edge">
<title>Limerick&#45;&#45;Clare</title>
<path fill="none" stroke="black" d="M390.91,-179.37C362.49,-207.8 306.5,-263.78 279.52,-290.76"/>
</g>
<!-- Limerick&#45;&#45;Tipperary -->
<g id="edge32" class="edge">
<title>Limerick&#45;&#45;Tipperary</title>
<path fill="none" stroke="black" d="M438.66,-177.19C505.88,-210.8 666.66,-291.19 735.79,-325.75"/>
</g>
<!-- Longford&#45;&#45;Roscommon -->
<g id="edge56" class="edge">
<title>Longford&#45;&#45;Roscommon</title>
<path fill="none" stroke="black" d="M408.28,-863.55C408.28,-811.53 408.28,-664.13 408.28,-612.3"/>
</g>
<!-- Meath -->
<g id="node22" class="node">
<title>Meath</title>
<ellipse fill="lightblue" stroke="black" cx="1632.28" cy="-738" rx="40.6" ry="18"/>
<text xml:space="preserve" text-anchor="middle" x="1632.28" y="-732.95" font-family="Times New Roman,serif" font-size="14.00">An Mhí</text>
</g>
<!-- Louth&#45;&#45;Meath -->
<g id="edge5" class="edge">
<title>Louth&#45;&#45;Meath</title>
<path fill="none" stroke="black" d="M1566.3,-935.96C1579.85,-895.3 1612.65,-796.9 1626.23,-756.15"/>
</g>
<!-- Louth&#45;&#45;Monaghan -->
<g id="edge47" class="edge">
<title>Louth&#45;&#45;Monaghan</title>
<path fill="none" stroke="black" d="M1533.91,-958.4C1463.75,-970.09 1271.57,-1002.12 1179.19,-1017.51"/>
</g>
<!-- Mayo&#45;&#45;Roscommon -->
<g id="edge37" class="edge">
<title>Mayo&#45;&#45;Roscommon</title>
<path fill="none" stroke="black" d="M81.83,-724.58C149.64,-697.46 302.5,-636.31 372.3,-608.39"/>
</g>
<!-- Sligo -->
<g id="node26" class="node">
<title>Sligo</title>
<ellipse fill="lightblue" stroke="black" cx="120.28" cy="-954" rx="42.65" ry="18"/>
<text xml:space="preserve" text-anchor="middle" x="120.28" y="-948.95" font-family="Times New Roman,serif" font-size="14.00">Sligeach</text>
</g>
<!-- Mayo&#45;&#45;Sligo -->
<g id="edge16" class="edge">
<title>Mayo&#45;&#45;Sligo</title>
<path fill="none" stroke="black" d="M54.3,-756.04C67.85,-796.7 100.65,-895.1 114.23,-935.85"/>
</g>
<!-- Meath&#45;&#45;Cavan -->
<g id="edge49" class="edge">
<title>Meath&#45;&#45;Cavan</title>
<path fill="none" stroke="black" d="M1596.96,-747.42C1435.64,-790.44 769.22,-968.15 594.42,-1014.76"/>
</g>
<!-- Meath&#45;&#45;Dublin -->
<g id="edge6" class="edge">
<title>Meath&#45;&#45;Dublin</title>
<path fill="none" stroke="black" d="M1626.27,-719.96C1612.71,-679.3 1579.91,-580.9 1566.33,-540.15"/>
</g>
<!-- Meath&#45;&#45;Kildare -->
<g id="edge51" class="edge">
<title>Meath&#45;&#45;Kildare</title>
<path fill="none" stroke="black" d="M1594.77,-730.5C1526.7,-716.88 1383.36,-688.22 1313,-674.14"/>
</g>
<!-- Meath&#45;&#45;Monaghan -->
<g id="edge48" class="edge">
<title>Meath&#45;&#45;Monaghan</title>
<path fill="none" stroke="black" d="M1606.94,-752.48C1521.71,-801.19 1245.72,-958.89 1156.43,-1009.91"/>
</g>
<!-- WestMeath -->
<g id="node30" class="node">
<title>WestMeath</title>
<ellipse fill="lightgreen" stroke="black" cx="840.28" cy="-846" rx="36" ry="18"/>
<text xml:space="preserve" text-anchor="middle" x="840.28" y="-840.95" font-family="Times New Roman,serif" font-size="14.00">Iarmhí</text>
</g>
<!-- Meath&#45;&#45;WestMeath -->
<g id="edge50" class="edge">
<title>Meath&#45;&#45;WestMeath</title>
<path fill="none" stroke="black" d="M1593.01,-743.36C1456.61,-761.96 1004.69,-823.58 875.22,-841.24"/>
</g>
<!-- Offaly&#45;&#45;Tipperary -->
<g id="edge68" class="edge">
<title>Offaly&#45;&#45;Tipperary</title>
<path fill="none" stroke="black" d="M582.77,-434.76C623.24,-414.52 694.4,-378.94 735.83,-358.23"/>
</g>
<!-- Roscommon&#45;&#45;Leitrim -->
<g id="edge57" class="edge">
<title>Roscommon&#45;&#45;Leitrim</title>
<path fill="none" stroke="black" d="M403.73,-612.19C382.17,-698.43 290.39,-1065.55 268.83,-1151.81"/>
</g>
<!-- Roscommon&#45;&#45;Offaly -->
<g id="edge58" class="edge">
<title>Roscommon&#45;&#45;Offaly</title>
<path fill="none" stroke="black" d="M425.65,-576.63C453.33,-548.95 507.13,-495.15 534.85,-467.43"/>
</g>
<!-- Sligo&#45;&#45;Leitrim -->
<g id="edge17" class="edge">
<title>Sligo&#45;&#45;Leitrim</title>
<path fill="none" stroke="black" d="M132.06,-971.68C159.13,-1012.28 225.5,-1111.83 252.54,-1152.38"/>
</g>
<!-- Sligo&#45;&#45;Roscommon -->
<g id="edge38" class="edge">
<title>Sligo&#45;&#45;Roscommon</title>
<path fill="none" stroke="black" d="M134.17,-936.64C182.82,-875.82 345.23,-672.81 394.19,-611.61"/>
</g>
<!-- Tyrone&#45;&#45;Cavan -->
<g id="edge52" class="edge">
<title>Tyrone&#45;&#45;Cavan</title>
<path fill="none" stroke="black" d="M809.46,-1154.59C753.88,-1126.8 637.54,-1068.63 582.45,-1041.08"/>
</g>
<!-- Tyrone&#45;&#45;Monaghan -->
<g id="edge53" class="edge">
<title>Tyrone&#45;&#45;Monaghan</title>
<path fill="none" stroke="black" d="M871.1,-1154.59C926.39,-1126.95 1041.8,-1069.24 1097.25,-1041.52"/>
</g>
<!-- Waterford&#45;&#45;Cork -->
<g id="edge10" class="edge">
<title>Waterford&#45;&#45;Cork</title>
<path fill="none" stroke="black" d="M1085.16,-79.22C1029.14,-65.22 932.19,-40.98 878.62,-27.58"/>
</g>
<!-- Waterford&#45;&#45;Tipperary -->
<g id="edge29" class="edge">
<title>Waterford&#45;&#45;Tipperary</title>
<path fill="none" stroke="black" d="M1104.66,-106.53C1039.74,-151.98 859.07,-278.45 792.94,-324.74"/>
</g>
<!-- WestMeath&#45;&#45;Cavan -->
<g id="edge63" class="edge">
<title>WestMeath&#45;&#45;Cavan</title>
<path fill="none" stroke="black" d="M817.68,-860.12C764.91,-893.11 633.81,-975.05 578.04,-1009.9"/>
</g>
<!-- WestMeath&#45;&#45;Kildare -->
<g id="edge59" class="edge">
<title>WestMeath&#45;&#45;Kildare</title>
<path fill="none" stroke="black" d="M868.29,-834.33C945.23,-802.27 1159.45,-713.01 1240.59,-679.21"/>
</g>
<!-- WestMeath&#45;&#45;Longford -->
<g id="edge62" class="edge">
<title>WestMeath&#45;&#45;Longford</title>
<path fill="none" stroke="black" d="M804.56,-848.98C725.62,-855.56 536.58,-871.31 451.3,-878.41"/>
</g>
<!-- WestMeath&#45;&#45;Offaly -->
<g id="edge60" class="edge">
<title>WestMeath&#45;&#45;Offaly</title>
<path fill="none" stroke="black" d="M827.72,-828.73C780.41,-763.68 613.2,-533.77 565.23,-467.81"/>
</g>
<!-- WestMeath&#45;&#45;Roscommon -->
<g id="edge61" class="edge">
<title>WestMeath&#45;&#45;Roscommon</title>
<path fill="none" stroke="black" d="M816.44,-832.09C742.15,-788.76 515.09,-656.3 435.88,-610.1"/>
</g>
<!-- Wexford&#45;&#45;Carlow -->
<g id="edge24" class="edge">
<title>Wexford&#45;&#45;Carlow</title>
<path fill="none" stroke="black" d="M1263.27,-180.02C1237.41,-231.74 1163.14,-380.28 1137.29,-431.99"/>
</g>
<!-- Wexford&#45;&#45;Waterford -->
<g id="edge9" class="edge">
<title>Wexford&#45;&#45;Waterford</title>
<path fill="none" stroke="black" d="M1240.68,-146.2C1216.17,-133.95 1182.44,-117.08 1158.33,-105.03"/>
</g>
<!-- Wicklow&#45;&#45;Carlow -->
<g id="edge23" class="edge">
<title>Wicklow&#45;&#45;Carlow</title>
<path fill="none" stroke="black" d="M1384.36,-321.96C1328.56,-349.86 1214,-407.14 1159.04,-434.62"/>
</g>
<!-- Wicklow&#45;&#45;Kildare -->
<g id="edge22" class="edge">
<title>Wicklow&#45;&#45;Kildare</title>
<path fill="none" stroke="black" d="M1408.94,-324.35C1384.18,-386.25 1303.91,-586.92 1279.43,-648.12"/>
</g>
<!-- Wicklow&#45;&#45;Wexford -->
<g id="edge8" class="edge">
<title>Wicklow&#45;&#45;Wexford</title>
<path fill="none" stroke="black" d="M1398.62,-288.34C1370.84,-260.56 1317.23,-206.95 1289.63,-179.35"/>
</g>
</g>
</svg>
