<?xml version="1.0" encoding="UTF-8" standalone="no"?>
<!-- Created with Inkscape (http://www.inkscape.org/) -->

<svg
   width="210mm"
   height="297mm"
   viewBox="0 0 210 297"
   version="1.1"
   id="svg1"
   inkscape:version="1.3.2 (091e20e, 2023-11-25)"
   sodipodi:docname="Cauldron.svg"
   xmlns:inkscape="http://www.inkscape.org/namespaces/inkscape"
   xmlns:sodipodi="http://sodipodi.sourceforge.net/DTD/sodipodi-0.dtd"
   xmlns="http://www.w3.org/2000/svg"
   xmlns:svg="http://www.w3.org/2000/svg">
  <sodipodi:namedview
     id="namedview1"
     pagecolor="#ffffff"
     bordercolor="#000000"
     borderopacity="0.25"
     inkscape:showpageshadow="2"
     inkscape:pageopacity="0.0"
     inkscape:pagecheckerboard="0"
     inkscape:deskcolor="#d1d1d1"
     inkscape:document-units="mm"
     inkscape:zoom="1.588074"
     inkscape:cx="246.52504"
     inkscape:cy="329.95944"
     inkscape:window-width="2464"
     inkscape:window-height="1227"
     inkscape:window-x="258"
     inkscape:window-y="27"
     inkscape:window-maximized="0"
     inkscape:current-layer="layer1" />
  <defs
     id="defs1" />
  <g
     inkscape:label="Layer 1"
     inkscape:groupmode="layer"
     id="layer1">
    <ellipse
       style="fill:#ffed8c;stroke:#ffc342;stroke-width:0.661458"
       id="path2"
       cx="121.60104"
       cy="110.93039"
       rx="4.6684132"
       ry="0.22230539" />
    <ellipse
       style="fill:#3a3200;fill-opacity:1;stroke:none;stroke-width:0.661458"
       id="path3"
       cx="104.03892"
       cy="173.6205"
       rx="85.809875"
       ry="76.695358" />
    <path
       style="fill:#e49700;fill-opacity:1;stroke:none;stroke-width:0.661458"
       d="m 142.48592,169.96305 c -2.17372,-1.85741 -3.24251,-4.32749 -3.53425,-6.24447 -0.29175,-1.91698 0.94246,-4.3583 0.94246,-4.3583 0,0 3.71228,-6.00452 3.06303,-8.71783 -0.64926,-2.71331 -3.06591,-5.02182 -5.06577,-6.8329 -1.99986,-1.81108 -4.68829,-3.11677 -6.9507,-4.00549 -2.26242,-0.88872 -3.22504,-0.49465 -5.89043,-0.23561 -2.66539,0.25904 -6.12242,-0.79019 -9.89592,2.35617 -3.77349,3.14636 -5.94936,7.8604 -7.77536,17.67128 -1.826,9.81088 -0.11959,30.69896 1.88494,40.52613 2.00453,9.82717 2.99528,13.62232 6.83289,18.37813 3.83761,4.75581 8.25934,8.44153 14.37264,9.18907 6.1133,0.74754 18.84937,-6.36166 18.84937,-6.36166 0,0 -11.91071,-12.81938 -12.15998,-15.29201 -0.24927,-2.47264 0.41089,-3.78023 1.61979,-1.7776 -1.25128,-4.4774 -3.40335,-0.68278 -2.65437,2.22573 0.74898,2.90851 5.69191,8.4636 4.24111,11.30962 -1.4508,2.84602 -1.80863,3.56324 -6.8329,1.88494 -5.02427,-1.6783 -11.42104,-7.9021 -15.07949,-19.55622 -3.65844,-11.65412 -3.84602,-44.84266 0.82466,-48.06588 4.67069,-3.22322 10.03641,-2.85336 13.07675,0.23562 3.04033,3.08898 3.91222,13.2206 4.00549,16.49319 2.96724,-1.12166 3.38488,-0.92141 6.12604,1.17809 z"
       id="path7-0"
       sodipodi:nodetypes="czczzzzzzzzzczczzzzzzcc" />
    <path
       style="fill:#e49700;fill-opacity:1;stroke:none;stroke-width:0.661458"
       d="m 80.581038,167.52374 c -2.173721,-1.85741 -3.24251,-4.32749 -3.534256,-6.24447 -0.291746,-1.91698 0.942467,-4.3583 0.942467,-4.3583 0,0 3.712277,-6.00452 3.063023,-8.71783 -0.649254,-2.71331 -3.065909,-5.02182 -5.065767,-6.8329 -1.999858,-1.81108 -4.688287,-3.11677 -6.950703,-4.00549 -2.262416,-0.88872 -3.225038,-0.49465 -5.890427,-0.23561 -2.665389,0.25904 -6.12242,-0.79019 -9.895916,2.35617 -3.773496,3.14636 -5.949364,7.8604 -7.775364,17.67128 -1.826,9.81088 -0.119594,30.69896 1.884937,40.52613 2.004531,9.82717 2.995284,13.62232 6.832894,18.37813 3.83761,4.75581 8.25934,8.44153 14.372642,9.18907 6.113302,0.74754 18.849364,-6.36166 18.849364,-6.36166 0,0 -11.910704,-12.81938 -12.159978,-15.29201 -0.249273,-2.47264 0.410894,-3.78023 1.619793,-1.7776 -1.251284,-4.4774 -3.403348,-0.68278 -2.654371,2.22573 0.748977,2.90851 5.691907,8.4636 4.241109,11.30962 -1.450798,2.84602 -1.808626,3.56324 -6.832896,1.88494 -5.02427,-1.6783 -11.421049,-7.9021 -15.079493,-19.55622 -3.658444,-11.65412 -3.846021,-44.84266 0.824662,-48.06588 4.670683,-3.22322 10.036409,-2.85336 13.076745,0.23562 3.040336,3.08898 3.912218,13.2206 4.005492,16.49319 2.967235,-1.12166 3.384875,-0.92141 6.126043,1.17809 z"
       id="path7"
       sodipodi:nodetypes="czczzzzzzzzzczczzzzzzcc" />
    <path
       style="fill:#0c0c0c;fill-opacity:0.44074845;stroke:none;stroke-width:0.661458"
       d="m 40.353088,121.64897 c -3.761974,3.67257 -9.461958,12.88972 -9.461958,12.88972 0,0 9.633556,5.99454 21.755311,9.19572 12.121755,3.20118 34.731562,5.94523 51.255369,5.99692 16.5238,0.0517 34.93147,-2.14462 47.24988,-5.22883 12.31841,-3.08421 26.60477,-10.64005 26.60477,-10.64005 l -13.25047,-16.92982 -32.9012,-2.22305 -47.573355,-1.33383 -30.921746,-0.62699 c 0,0 -8.994627,5.22765 -12.756601,8.90021 z"
       id="path4"
       sodipodi:nodetypes="zczzzcccccz" />
    <ellipse
       style="fill:#3a3200;stroke:none;stroke-width:0.661458;fill-opacity:1"
       id="path1"
       cx="105.15044"
       cy="113.82036"
       rx="77.584579"
       ry="20.896706" />
    <path
       style="fill:#0c0c0c;fill-opacity:0.440748;stroke:none;stroke-width:0.661458"
       d="m 20.027451,172.4717 c 0,0 5.801093,30.44535 13.66579,42.17545 7.864698,11.7301 16.677593,19.50939 30.158985,25.68226 13.481392,6.17287 34.406718,8.66494 48.772734,7.53975 14.36602,-1.12519 24.85997,-5.80494 35.34256,-11.30962 10.48259,-5.50468 19.01551,-12.2377 26.38911,-22.61925 7.3736,-10.38154 13.90141,-38.40557 13.90141,-38.40557 0,0 -11.40624,19.13938 -19.79183,26.86034 -8.38559,7.72095 -19.37257,14.08722 -30.63023,18.84937 -11.25766,4.76215 -22.79372,5.97459 -36.04941,5.65481 C 88.530883,226.57946 70.116134,224.00392 59.611119,218.18141 49.106104,212.3589 42.433227,207.88814 35.813793,200.27451 29.194359,192.66088 20.027451,172.4717 20.027451,172.4717 Z"
       id="path5"
       sodipodi:nodetypes="czzzzzczzzzzc" />
    <path
       style="fill:#0c0c0c;fill-opacity:0.440748;stroke:none;stroke-width:0.661458"
       d="m 30.897838,108.12844 c 0,0 -3.021464,3.59695 -2.998914,5.83123 0.02255,2.23427 -0.08515,2.95077 3.254744,6.02641 3.339897,3.07564 7.774696,5.14901 18.679267,8.1822 10.90457,3.03318 35.105581,5.43899 47.119298,6.14768 12.013717,0.70869 14.365887,0.50316 24.687207,-0.29365 10.32133,-0.79681 27.47288,-2.54438 37.04553,-5.30369 9.57265,-2.75931 16.84935,-5.57777 20.41694,-9.09521 3.56759,-3.51743 3.25214,-5.24696 3.23627,-6.99659 -0.0159,-1.74964 -1.21678,-2.51007 -1.21678,-2.51007 0,0 -2.73568,4.32736 -5.35162,6.50775 -2.61594,2.18039 -6.57262,4.13228 -10.4962,5.83122 -3.92358,1.69894 -6.72949,2.79294 -12.99531,4.16516 -6.26582,1.37222 -16.33328,2.21499 -24.65775,2.99892 -8.32447,0.78393 -16.14982,1.59776 -25.2719,1.68974 -9.122082,0.092 -19.368979,-0.029 -29.375006,-1.36981 -10.006027,-1.3408 -23.567749,-3.86635 -30.415928,-6.79563 -6.84818,-2.92928 -9.47745,-4.53994 -11.248683,-7.50841 -1.771234,-2.96848 -0.675367,-7.18444 -0.675367,-7.18444"
       id="path6"
       sodipodi:nodetypes="czzzzzzzzczzzzzzzzc" />
    <ellipse
       style="fill:#010100;fill-opacity:1;stroke:none;stroke-width:0.661458"
       id="path8"
       cx="104.37836"
       cy="110.97564"
       rx="61.967289"
       ry="11.074002" />
    <path
       style="fill:#b5b5ff;fill-opacity:0.528067;stroke:none;stroke-width:0.661458"
       d="m 64.884531,113.54375 c 0,0 9.030389,-6.18226 9.570462,-12.69964 C 74.995066,94.326726 59.097814,88.745731 60.789203,79.638569 62.480592,70.531407 81.63334,68.10337 85.293379,61.731672 c 3.660039,-6.371698 0.370562,-9.311363 1.413703,-13.665789 1.043141,-4.354426 0.307221,-6.498689 4.71234,-12.252087 4.405119,-5.753398 14.859638,-14.432141 24.504178,-17.906899 9.64454,-3.474758 31.10145,-1.884936 31.10145,-1.884936 0,0 -22.9783,3.737885 -31.57269,9.895917 -8.59439,6.158032 -15.43535,16.933131 -17.906894,24.504175 -2.471541,7.571044 2.708934,11.852642 0,17.435663 -2.708933,5.583021 -15.550727,12.252086 -15.550727,12.252086 0,0 -1.347898,2.287621 7.068513,1.884937 8.416411,-0.402684 33.639138,-8.017254 40.526138,-15.07949 6.887,-7.062236 1.78944,-10.318606 5.18357,-15.079493 3.39413,-4.760887 9.79911,-8.887608 15.07949,-11.780853 5.28038,-2.893245 16.02197,-5.65481 16.02197,-5.65481 0,0 -15.14588,8.772239 -18.84937,16.02196 -3.70349,7.249721 4.25757,14.813837 -1.88494,24.03294 -6.14251,9.219103 -34.04359,9.83311 -37.69873,19.320599 -3.65514,9.487488 7.80518,21.309268 7.80518,21.309268 l -18.560258,0.3283 c 0,0 0.0528,-12.43648 -5.738113,-14.09782 -5.790913,-1.661337 -16.96443,12.25209 -16.96443,12.25209 z"
       id="path9"
       sodipodi:nodetypes="czzzzzzczzzczzzzczzzcczcc"
       inkscape:export-filename="cauldron.png"
       inkscape:export-xdpi="96"
       inkscape:export-ydpi="96" />
    <path
       style="fill:#b5b5ff;fill-opacity:0.528067;stroke:none;stroke-width:0.661458"
       d="m 121.48203,117.25891 c 0,0 -3.94728,-13.95297 -0.84609,-20.184678 3.10119,-6.231707 3.65866,-6.139211 8.24659,-9.660299 4.58793,-3.521087 18.15925,-4.293902 20.49869,-7.068514 2.33944,-2.774612 4.71234,-13.901406 4.71234,-13.901406 0,0 4.33039,11.84365 1.4137,16.964429 -2.91669,5.120779 -13.82247,4.967133 -16.49319,8.01098 -2.67072,3.043847 -5.14168,6.689537 -5.89043,9.895918 -0.74875,3.20638 1.76624,5.95828 2.12056,9.42468 0.35432,3.4664 -0.47124,6.59728 -0.47124,6.59728 z"
       id="path10"
       sodipodi:nodetypes="czzzczzzzcc" />
  </g>
</svg>
