<?xml version="1.0" encoding="UTF-8" standalone="no"?>
<!-- Created with Inkscape (http://www.inkscape.org/) -->

<svg
   width="210mm"
   height="54mm"
   viewBox="0 0 210 54"
   version="1.1"
   id="svg1"
   inkscape:version="1.3.2 (091e20e, 2023-11-25)"
   sodipodi:docname="CozyCrucibleTitle.svg"
   xmlns:inkscape="http://www.inkscape.org/namespaces/inkscape"
   xmlns:sodipodi="http://sodipodi.sourceforge.net/DTD/sodipodi-0.dtd"
   xmlns="http://www.w3.org/2000/svg"
   xmlns:svg="http://www.w3.org/2000/svg">
  <sodipodi:namedview
     id="namedview1"
     pagecolor="#ffffff"
     bordercolor="#000000"
     borderopacity="0.25"
     inkscape:showpageshadow="2"
     inkscape:pageopacity="0.0"
     inkscape:pagecheckerboard="0"
     inkscape:deskcolor="#d1d1d1"
     inkscape:document-units="mm"
     inkscape:zoom="1.4142136"
     inkscape:cx="344.361"
     inkscape:cy="77.074639"
     inkscape:window-width="1888"
     inkscape:window-height="1195"
     inkscape:window-x="443"
     inkscape:window-y="25"
     inkscape:window-maximized="0"
     inkscape:current-layer="layer1"
     showgrid="false" />
  <defs
     id="defs1" />
  <g
     inkscape:label="Layer 1"
     inkscape:groupmode="layer"
     id="layer1">
    <path
       style="fill:#fffa1f;fill-opacity:1;fill-rule:nonzero;stroke:#ff4213;stroke-width:0.28229;stroke-opacity:0.58426964"
       id="path24-26-9"
       d="m 170.27226,10.749496 c -3.4485,4.671421 -6.8572,-0.8600061 -8.74999,2.694435 -2.69856,5.067566 0.85866,13.299273 -0.0673,19.711137 -0.17596,1.21844 -1.01865,3.396815 -1.01865,3.396815 0,0 9.44723,2.824445 10.35124,1.136628 -3.46697,-0.09516 -6.50828,-4.571898 -6.06815,-14.270619 0.37954,-12.118794 7.69378,-10.237761 11.86047,-7.568269 -1.92074,-6.1050371 -6.30766,-5.100127 -6.30766,-5.100127 z"
       sodipodi:nodetypes="caacccccc" />
    <path
       style="fill:#fffa1f;fill-opacity:1;fill-rule:nonzero;stroke:#ff4213;stroke-width:0.118221;stroke-opacity:0.58426964"
       id="path24-26-6-8-0"
       d="m 154.65968,21.294469 c 1.11379,2.536745 2.21472,-0.467014 2.82605,1.463172 0.87157,2.751867 0.75236,7.269682 0.0217,10.70384 -0.0836,0.393158 -0.48517,1.043331 -0.48517,1.043331 0,0 -5.492,2.798223 -5.78397,1.881679 1.11975,-0.05167 5.35695,-2.945892 5.2148,-8.212638 -0.12258,-6.580931 -2.48491,-5.559464 -3.83065,-4.109836 0.62035,-3.31525 2.03722,-2.769548 2.03722,-2.769548 z"
       sodipodi:nodetypes="caacccccc" />
    <path
       style="fill:#fffa1f;fill-opacity:1;fill-rule:nonzero;stroke:#ff4213;stroke-width:0.204161;stroke-opacity:0.58426964"
       id="path24-9-8"
       d="m 123.00974,21.240796 c -3.4485,2.443454 -6.8572,-0.449839 -8.75,1.409363 -2.69856,2.650664 0.85867,6.956381 -0.0673,10.310196 -0.17595,0.637324 -1.01865,1.776755 -1.01865,1.776755 0,0 9.44723,1.477366 10.35124,0.594529 -3.46697,-0.04977 -6.50828,-2.391397 -6.06815,-7.464458 0.37954,-6.338908 7.69377,-5.355006 11.86048,-3.95869 -1.92075,-3.193329 -6.30767,-2.667695 -6.30767,-2.667695 z"
       sodipodi:nodetypes="caacccccc" />
    <path
       style="fill:#fffa1f;fill-opacity:1;fill-rule:nonzero;stroke:#ff4213;stroke-width:0.204161;stroke-opacity:0.58426964"
       id="path24-9-4-6"
       d="m 34.071251,12.921549 c 3.4485,2.443454 7.342562,-1.18809 8.75,1.409363 3.316131,6.119984 -6.011862,10.632816 -8.476027,19.084424 C 49.544965,33.208166 57.121806,43.807265 95.859858,31.84403 81.606217,40.084611 74.304437,42.66163 67.370357,43.093793 53.245364,43.974126 51.960499,34.727185 20.85642,38.672883 25.824245,35.852304 40.064241,24.620998 39.624111,19.547937 39.244571,13.209029 27.889578,15.693786 23.722878,17.090102 c 1.92074,-3.193329 10.348423,-4.16855 10.348423,-4.16855 z"
       sodipodi:nodetypes="caccsccccc" />
    <path
       style="fill:#fffa1f;fill-opacity:1;fill-rule:nonzero;stroke:#ff4213;stroke-width:0.169473;stroke-opacity:0.58427"
       id="path24-2-5"
       d="m 166.9235,28.043785 c 3.4485,1.683684 6.8572,-0.309964 8.75,0.971134 2.69855,1.826462 2.73319,5.262979 0.0673,7.104327 -2.08928,1.443048 -9.75797,1.135763 -9.75797,1.135763 0,0 -3.8212,0.132757 -4.72521,-0.475569 3.46697,-0.03429 11.65886,-0.674054 11.21874,-4.169689 -0.37954,-4.367877 -7.69378,-3.689911 -11.86047,-2.727767 1.92074,-2.20039 6.30765,-1.838199 6.30765,-1.838199 z"
       sodipodi:nodetypes="caaccccc" />
    <path
       style="fill:#fffa1f;fill-opacity:1;fill-rule:nonzero;stroke:#ff4213;stroke-width:0.173403;stroke-opacity:0.58426964"
       id="path24-5-2"
       d="m 192.05874,25.338385 c -2.9131,2.086631 -5.79257,-0.384148 -7.39151,1.20355 -2.27958,2.263581 -2.30885,6.522545 -0.0568,8.804576 1.7649,1.7884 8.24299,1.40758 8.24299,1.40758 0,0 3.22794,0.16453 3.99159,-0.58939 -2.9287,-0.0425 -9.84876,-0.83537 -9.47695,-5.167598 0.3206,-5.413222 6.49926,-4.573002 10.01905,-3.380592 -1.62253,-2.727 -5.32835,-2.278126 -5.32835,-2.278126 z"
       sodipodi:nodetypes="caaccccc" />
    <path
       style="fill:#fffa1f;fill-opacity:1;fill-rule:nonzero;stroke:#ff4213;stroke-width:0.132288;stroke-opacity:0.58426964"
       id="path24-5-8-0"
       d="m 25.233512,18.472363 c -1.78434,1.982663 -3.54808,-0.365008 -4.52747,1.143582 -1.39629,2.150797 -1.41422,6.197556 -0.0348,8.365882 1.08104,1.699298 5.04901,1.337449 5.04901,1.337449 0,0 1.97719,0.15633 2.44494,-0.56002 -1.79389,-0.04038 -6.03258,-0.793749 -5.80484,-4.910124 0.19637,-5.143505 3.98094,-4.345149 6.13689,-3.212152 -0.99384,-2.591126 -3.26373,-2.164617 -3.26373,-2.164617 z"
       sodipodi:nodetypes="caaccccc" />
    <path
       style="fill:#fffa1f;fill-opacity:1;fill-rule:nonzero;stroke:#ff4213;stroke-width:0.132288;stroke-opacity:0.58426964"
       id="path24-5-4-3"
       d="m 26.589272,18.433471 c 1.78434,1.982664 3.54808,-0.365007 4.52746,1.143583 1.3963,2.150797 1.41423,6.197556 0.0348,8.365882 -1.08104,1.699298 -5.04901,1.337448 -5.04901,1.337448 0,0 -1.97718,0.156331 -2.44494,-0.560019 1.7939,-0.04038 6.03259,-0.793749 5.80484,-4.910124 -0.19637,-5.143506 -3.98094,-4.34515 -6.13689,-3.212152 0.99384,-2.591126 3.26374,-2.164618 3.26374,-2.164618 z"
       sodipodi:nodetypes="caaccccc" />
    <path
       style="fill:#fffa1f;fill-opacity:1;fill-rule:nonzero;stroke:#ff4213;stroke-width:0.480163;stroke-opacity:0.58426964"
       id="path24-5-2-4"
       d="M 24.556178,1.6158204 C 18.683663,9.5525426 12.878943,0.15467273 9.6556428,6.1936506 5.0602405,14.80342 5.0012351,31.002843 9.5411396,39.682789 c 3.5578594,6.80237 16.6170324,5.35388 16.6170324,5.35388 0,0 6.5072,0.625809 8.046641,-2.241806 C 28.300851,42.633209 14.350711,39.617444 15.100243,23.139355 15.74654,2.5495905 28.202091,5.7454563 35.297631,10.280915 32.026775,-0.09151946 24.556218,1.6158204 24.556218,1.6158204 Z"
       sodipodi:nodetypes="caaccccc" />
    <path
       style="fill:#fffa1f;fill-opacity:1;fill-rule:nonzero;stroke:#ff4213;stroke-width:0.457921;stroke-opacity:0.58426964"
       id="path24-5-2-8"
       d="m 116.1177,3.4925839 c -5.60693,7.5604001 -11.14912,-1.391867 -14.22665,4.3607712 -4.387574,8.2015359 -4.443911,23.6328579 -0.10932,31.9012429 3.39695,6.479833 15.86551,5.100024 15.86551,5.100024 0,0 6.21291,0.596135 7.68273,-2.135512 C 119.69302,42.565122 106.37378,39.69235 107.08941,23.995574 107.70648,4.3820789 119.59873,7.4264123 126.37337,11.74682 123.25044,1.866198 116.11774,3.4925839 116.11774,3.4925839 Z"
       sodipodi:nodetypes="caaccccc" />
    <path
       style="fill:#fffa1f;fill-opacity:1;fill-rule:nonzero;stroke:#ff4213;stroke-width:0.169115;stroke-opacity:0.58426964"
       id="path24-26-6-8-0-1"
       d="m 56.097529,27.981503 c 2.986155,-6.015125 2.007258,-5.849071 3.729873,-10.651835 5.929577,4.265662 2.912897,10.805963 -5.59849,16.810697 -4.111493,2.546308 -7.677248,15.057969 -7.677248,15.057969 0,0 -9.98483,4.448295 -10.613188,3.576812 2.409851,-0.04913 15.57459,-19.078025 15.268664,-24.085838 -0.263809,-6.257388 -7.323674,-3.122151 -10.219886,-1.743792 1.335076,-3.15226 2.773066,-5.98504 5.936797,-8.18449 0.999741,4.104345 9.05696,0.369934 9.173478,9.220477 z"
       sodipodi:nodetypes="ccccccccc" />
    <path
       style="fill:#fffa1f;fill-opacity:1;fill-rule:nonzero;stroke:#ff4213;stroke-width:0.173403;stroke-opacity:0.58426964"
       id="path24-5-2-43"
       d="m 124.05361,27.290644 c 2.08663,2.9131 -0.38415,5.79257 1.20355,7.39151 2.26358,2.27958 6.52255,2.30885 8.80458,0.0568 1.7884,-1.7649 1.40758,-8.24299 1.40758,-8.24299 0,0 0.16453,-3.22794 -0.58939,-3.99159 -0.0425,2.9287 -0.83537,9.84876 -5.1676,9.47695 -5.41322,-0.3206 -4.573,-6.49926 -3.38059,-10.01905 -2.727,1.62253 -2.27813,5.32835 -2.27813,5.32835 z"
       sodipodi:nodetypes="caaccccc" />
    <path
       style="fill:#fffa1f;fill-opacity:1;fill-rule:nonzero;stroke:#ff4213;stroke-width:0.173403;stroke-opacity:0.58426964"
       id="path24-5-2-5"
       d="m 145.96136,23.663272 c -2.9131,2.086631 -5.79257,-0.384148 -7.39151,1.20355 -2.27958,2.263581 -2.30885,6.522545 -0.0568,8.804576 1.7649,1.7884 8.24299,1.40758 8.24299,1.40758 0,0 3.22794,0.16453 3.99159,-0.58939 -2.9287,-0.0425 -9.84876,-0.83537 -9.47695,-5.167598 0.3206,-5.413222 6.49926,-4.573002 10.01905,-3.380592 -1.62253,-2.727 -5.32835,-2.278126 -5.32835,-2.278126 z"
       sodipodi:nodetypes="caaccccc" />
    <path
       style="fill:#fffa1f;fill-opacity:1;fill-rule:nonzero;stroke:#ff4213;stroke-width:0.264583;stroke-opacity:0.58426964"
       id="path2"
       d="m 195.16595,26.907292 c -2.49449,1.77328 -6.34643,3.478026 -8.79153,4.513193 l 0.84495,1.785302 v 0 c 2.49706,-1.717588 2.66956,-4.534159 10.11771,-5.604713 -0.71298,-0.215195 -1.4671,-0.577489 -2.17113,-0.693782 z"
       sodipodi:nodetypes="cccscc" />
    <path
       style="fill:#fffa1f;fill-opacity:1;fill-rule:nonzero;stroke:#ff4213;stroke-width:0.17656;stroke-opacity:0.58426964"
       id="path24-26-6-8-0-6"
       d="m 181.87024,12.466416 c -1.35681,4.644699 -2.69795,-0.855087 -3.44267,2.679021 -1.06173,5.038581 -0.0439,13.06561 -0.0264,19.598388 0.004,1.430546 0.0288,4.291556 0.0288,4.291556 0,0 9.66685,2.411477 10.02253,0.733315 -1.36407,-0.09461 -8.97317,-3.012584 -8.8,-12.655827 0.14932,-12.049474 2.10105,-12.196648 3.74041,-9.542426 -0.7557,-6.070116 -1.52261,-5.104027 -1.52261,-5.104027 z"
       sodipodi:nodetypes="caacccccc" />
  </g>
</svg>
