<?xml version="1.0" encoding="UTF-8" standalone="no"?>
<!-- Created with Inkscape (http://www.inkscape.org/) -->

<svg
   width="210mm"
   height="54mm"
   viewBox="0 0 210 54"
   version="1.1"
   id="svg1"
   inkscape:version="1.3.2 (091e20e, 2023-11-25)"
   sodipodi:docname="GrimoireTitle.svg"
   xmlns:inkscape="http://www.inkscape.org/namespaces/inkscape"
   xmlns:sodipodi="http://sodipodi.sourceforge.net/DTD/sodipodi-0.dtd"
   xmlns="http://www.w3.org/2000/svg"
   xmlns:svg="http://www.w3.org/2000/svg">
  <sodipodi:namedview
     id="namedview1"
     pagecolor="#ffffff"
     bordercolor="#000000"
     borderopacity="0.25"
     inkscape:showpageshadow="2"
     inkscape:pageopacity="0.0"
     inkscape:pagecheckerboard="0"
     inkscape:deskcolor="#d1d1d1"
     inkscape:document-units="mm"
     inkscape:zoom="1"
     inkscape:cx="447.5"
     inkscape:cy="249"
     inkscape:window-width="1888"
     inkscape:window-height="1195"
     inkscape:window-x="973"
     inkscape:window-y="25"
     inkscape:window-maximized="0"
     inkscape:current-layer="layer1"
     showgrid="false" />
  <defs
     id="defs1" />
  <g
     inkscape:label="Layer 1"
     inkscape:groupmode="layer"
     id="layer1">
    <path
       style="fill:#c977ff;fill-opacity:1;fill-rule:nonzero;stroke:none;stroke-width:0.118221"
       id="path24-26-6-8"
       d="m 62.203087,27.51591 c 1.113784,2.536745 2.214713,-0.467014 2.826043,1.463172 0.871571,2.751867 0.752361,7.269682 0.02174,10.70384 -0.08364,0.393158 -0.485171,1.043331 -0.485171,1.043331 0,0 -5.491995,2.798223 -5.783969,1.881679 1.119749,-0.05167 5.356954,-2.945892 5.2148,-8.212638 -0.12258,-6.580931 -2.484907,-5.559464 -3.830647,-4.109836 0.620355,-3.31525 2.037223,-2.769548 2.037223,-2.769548 z"
       sodipodi:nodetypes="caacccccc" />
    <path
       style="fill:#c977ff;fill-opacity:1;fill-rule:nonzero;stroke:none;stroke-width:0.204161"
       id="path24-9"
       d="m 51.609625,29.27512 c -3.4485,2.443454 -6.8572,-0.449839 -8.75,1.409363 -2.698559,2.650664 0.85867,6.956381 -0.0673,10.310196 -0.17595,0.637324 -1.01865,1.776755 -1.01865,1.776755 0,0 9.44723,1.477366 10.35124,0.594529 -3.46697,-0.04977 -6.50828,-2.391397 -6.06815,-7.464458 0.37954,-6.338908 7.69377,-5.355006 11.860475,-3.95869 -1.920745,-3.193329 -6.307665,-2.667695 -6.307665,-2.667695 z"
       sodipodi:nodetypes="caacccccc" />
    <path
       style="fill:#c977ff;fill-opacity:1;fill-rule:nonzero;stroke:none;stroke-width:0.173403"
       id="path24-5"
       d="m 129.04051,30.436038 c -2.9131,2.086631 -5.79257,-0.384148 -7.39151,1.20355 -2.27958,2.263581 -2.30885,6.522545 -0.0568,8.804574 1.7649,1.788406 8.24299,1.407582 8.24299,1.407582 0,0 3.22794,0.164528 3.99159,-0.589386 -2.9287,-0.0425 -9.84876,-0.835372 -9.47695,-5.167602 0.3206,-5.413222 6.49926,-4.573002 10.01905,-3.380592 -1.62253,-2.727 -5.32835,-2.278126 -5.32835,-2.278126 z"
       sodipodi:nodetypes="caaccccc" />
    <path
       style="fill:#c977ff;fill-opacity:1;fill-rule:nonzero;stroke:none;stroke-width:0.204161"
       id="path24-6"
       d="m 117.97664,27.035593 c -3.4485,2.443455 -6.8572,-0.449839 -8.75,1.409363 -2.69855,2.650664 0.85867,6.956381 -0.0673,10.310196 -0.17595,0.637325 -1.01865,1.776755 -1.01865,1.776755 0,0 9.44723,1.477367 10.35124,0.59453 -3.46697,-0.04977 -6.50827,-2.391398 -6.06815,-7.464459 0.37954,-6.338908 7.69377,-5.355006 11.86046,-3.958689 -1.92073,-3.193329 -6.30765,-2.667696 -6.30765,-2.667696 z"
       sodipodi:nodetypes="caacccccc" />
    <path
       style="fill:#c977ff;fill-opacity:1;fill-rule:nonzero;stroke:none;stroke-width:0.132288"
       id="path24-5-8"
       d="m 90.55251,30.129395 c -1.78434,1.982663 -3.54808,-0.365008 -4.52747,1.143582 -1.39629,2.150797 -1.41422,6.197556 -0.0348,8.365882 1.08104,1.699298 5.04901,1.337449 5.04901,1.337449 0,0 1.97719,0.15633 2.44494,-0.56002 -1.79389,-0.04038 -6.03258,-0.793749 -5.80484,-4.910124 0.19637,-5.143505 3.98094,-4.345149 6.13689,-3.212152 -0.99384,-2.591126 -3.26373,-2.164617 -3.26373,-2.164617 z"
       sodipodi:nodetypes="caaccccc" />
    <path
       style="fill:#c977ff;fill-opacity:1;fill-rule:nonzero;stroke:none;stroke-width:0.132288"
       id="path24-5-4"
       d="m 91.96339,30.035388 c 1.78434,1.982664 3.54808,-0.365007 4.52746,1.143583 1.3963,2.150797 1.41423,6.197556 0.0348,8.365882 -1.08104,1.699298 -5.04901,1.337448 -5.04901,1.337448 0,0 -1.97718,0.156331 -2.44494,-0.560019 1.7939,-0.04038 6.03259,-0.793749 5.80484,-4.910124 -0.19637,-5.143506 -3.98094,-4.34515 -6.13689,-3.212152 0.99384,-2.591126 3.26374,-2.164618 3.26374,-2.164618 z"
       sodipodi:nodetypes="caaccccc" />
    <path
       style="fill:#c977ff;fill-opacity:1;fill-rule:nonzero;stroke:none;stroke-width:0.508026"
       id="path24-5-5"
       d="M 25.650012,6.7572609 C 18.365385,13.919564 11.164855,5.438684 7.166475,10.888412 1.4660563,18.658091 1.3928625,33.276865 7.0244384,41.109866 c 4.4133876,6.138653 20.6127856,4.831486 20.6127856,4.831486 0,0 8.07193,0.564737 9.981547,-2.023051 C 30.295134,43.772421 12.990525,41.05091 13.920291,26.180652 14.721997,7.5999189 30.172627,10.483951 38.97437,14.576865 34.916999,5.216513 25.650063,6.7572609 25.650063,6.7572609 Z"
       sodipodi:nodetypes="caaccccc" />
    <path
       style="fill:#c977ff;fill-opacity:1;fill-rule:nonzero;stroke:none;stroke-width:0.204161"
       id="path24-9-9"
       d="m 28.303863,30.64241 c 3.4485,2.443454 6.8572,-0.449839 8.75,1.409363 2.698559,2.650664 -0.85867,6.956381 0.0673,10.310196 0.17595,0.637324 1.01865,1.776755 1.01865,1.776755 0,0 -9.44723,1.477366 -10.35124,0.594529 3.46697,-0.04977 6.50828,-2.391397 6.06815,-7.464458 -0.37954,-6.338908 -7.69377,-5.355006 -11.860475,-3.95869 1.920745,-3.193329 6.307665,-2.667695 6.307665,-2.667695 z"
       sodipodi:nodetypes="caacccccc" />
    <path
       style="fill:#c977ff;fill-opacity:1;fill-rule:nonzero;stroke:none;stroke-width:0.118221"
       id="path24-26-6-8-3"
       d="m 101.46786,27.177805 c 1.11378,2.536745 2.21471,-0.467014 2.82604,1.463172 0.87157,2.751867 0.75236,7.269682 0.0217,10.70384 -0.0836,0.393158 -0.48517,1.043331 -0.48517,1.043331 0,0 -5.492,2.798223 -5.78397,1.881679 1.11975,-0.05167 5.35695,-2.945892 5.2148,-8.212638 -0.12258,-6.580931 -2.48491,-5.559464 -3.83065,-4.109836 0.62036,-3.31525 2.03723,-2.769548 2.03723,-2.769548 z"
       sodipodi:nodetypes="caacccccc" />
    <path
       style="fill:#c977ff;fill-opacity:1;fill-rule:nonzero;stroke:none;stroke-width:0.118221"
       id="path24-26-6-8-3-6"
       d="m 79.573232,27.542723 c 1.11378,2.536745 2.21471,-0.467014 2.82604,1.463172 0.87157,2.751867 0.75236,7.269682 0.0217,10.70384 -0.0836,0.393158 -0.48517,1.043331 -0.48517,1.043331 0,0 -5.492,2.798223 -5.78397,1.881679 1.11975,-0.05167 5.35695,-2.945892 5.2148,-8.212638 -0.12258,-6.580931 -2.48491,-5.559464 -3.83065,-4.109836 0.62036,-3.31525 2.03723,-2.769548 2.03723,-2.769548 z"
       sodipodi:nodetypes="caacccccc" />
    <path
       style="fill:#c977ff;fill-opacity:1;fill-rule:nonzero;stroke:none;stroke-width:0.118221"
       id="path24-26-6-8-3-6-8"
       d="m 74.483482,27.35039 c 1.11378,2.536745 2.21471,-0.467014 2.82604,1.463172 0.87157,2.751867 0.75236,7.269682 0.0217,10.70384 -0.0836,0.393158 -0.48517,1.043331 -0.48517,1.043331 0,0 -5.492,2.798223 -5.78397,1.881679 1.11975,-0.05167 5.35695,-2.945892 5.2148,-8.212638 -0.12258,-6.580931 -2.48491,-5.559464 -3.83065,-4.109836 0.62036,-3.31525 2.03723,-2.769548 2.03723,-2.769548 z"
       sodipodi:nodetypes="caacccccc" />
    <path
       style="fill:#c977ff;fill-opacity:1;fill-rule:nonzero;stroke:none;stroke-width:0.126797"
       id="path24-26-6-8-3-6-4"
       d="m 69.697981,25.393424 c 1.11378,2.918129 2.21471,-0.537227 2.82604,1.683151 0.87157,3.165593 0.75236,8.362635 0.0217,12.313098 -0.0836,0.452266 -0.48517,1.200189 -0.48517,1.200189 0,0 -5.492,3.218919 -5.78397,2.164578 1.11975,-0.05944 5.35695,-3.388789 5.2148,-9.447358 -0.12258,-7.570335 -2.48491,-6.395296 -3.83065,-4.727726 0.62036,-3.813677 2.03723,-3.185932 2.03723,-3.185932 z"
       sodipodi:nodetypes="caacccccc" />
    <path
       style="fill:#c977ff;fill-opacity:1;fill-rule:nonzero;stroke:none;stroke-width:0.264583"
       id="path1"
       d="m 131.93064,31.80918 c -3.99536,3.518259 -7.42375,4.475711 -9.60591,4.960828 l 2.99512,2.503305 c 2.57007,-4.489552 6.2832,-6.477284 9.08127,-6.597945 z"
       sodipodi:nodetypes="ccccc" />
  </g>
</svg>
