<?xml version="1.0" encoding="UTF-8" standalone="no"?>
<!-- Created with Inkscape (http://www.inkscape.org/) -->

<svg
   width="210mm"
   height="297mm"
   viewBox="0 0 210 297"
   version="1.1"
   id="svg1"
   inkscape:version="1.3.2 (091e20e, 2023-11-25)"
   sodipodi:docname="grimoirBG.svg"
   xmlns:inkscape="http://www.inkscape.org/namespaces/inkscape"
   xmlns:sodipodi="http://sodipodi.sourceforge.net/DTD/sodipodi-0.dtd"
   xmlns="http://www.w3.org/2000/svg"
   xmlns:svg="http://www.w3.org/2000/svg">
  <sodipodi:namedview
     id="namedview1"
     pagecolor="#ffffff"
     bordercolor="#000000"
     borderopacity="0.25"
     inkscape:showpageshadow="2"
     inkscape:pageopacity="0.0"
     inkscape:pagecheckerboard="0"
     inkscape:deskcolor="#d1d1d1"
     inkscape:document-units="mm"
     showgrid="false"
     inkscape:zoom="0.62992818"
     inkscape:cx="334.16508"
     inkscape:cy="695.31736"
     inkscape:window-width="1888"
     inkscape:window-height="1195"
     inkscape:window-x="443"
     inkscape:window-y="25"
     inkscape:window-maximized="0"
     inkscape:current-layer="layer1" />
  <defs
     id="defs1" />
  <g
     inkscape:label="Layer 1"
     inkscape:groupmode="layer"
     id="layer1">
    <path
       style="fill:none;fill-opacity:1;stroke:#eccbff;stroke-width:0.264583;stroke-opacity:0.58427"
       d="m 206.68466,202.34605 c 0.29604,0.1717 0.66351,0.105 0.99755,0.105 0.12251,0 0.24501,0 0.36752,0 0.0525,0 0.12038,0.0371 0.15751,0 0.0406,-0.0406 0.0196,-0.22957 0.0525,-0.26251 0.10863,-0.10863 -0.004,0.166 0.105,-0.0525 0.0618,-0.12366 0.17362,-0.54531 0.10501,-0.68253 -0.0221,-0.0443 -0.0776,-0.0638 -0.10501,-0.10501 -0.01,-0.0146 0.0124,-0.0401 0,-0.0525 -0.0124,-0.0124 -0.0401,0.0124 -0.0525,0 -0.0247,-0.0248 0.0248,-0.0803 0,-0.105 -0.0124,-0.0124 -0.0401,0.0124 -0.0525,0 -0.049,-0.049 -0.056,-0.21348 -0.10501,-0.26252 -0.0124,-0.0124 -0.0401,0.0124 -0.0525,0 -0.16115,-0.16115 0.0307,-0.0437 -0.0525,-0.21001 -0.008,-0.0156 -0.0401,0.0124 -0.0525,0 -0.0263,-0.0262 -0.0263,-0.0787 -0.0525,-0.105 -0.0247,-0.0248 -0.0803,0.0248 -0.105,0 -0.0124,-0.0124 0.0124,-0.0401 0,-0.0525 -0.022,-0.022 -0.12569,-0.0366 -0.15751,-0.0525 -0.0765,-0.0382 -0.11241,-0.03 -0.15751,-0.0525 -0.0221,-0.0111 -0.035,-0.07 -0.0525,-0.0525 -0.0328,0.0328 0.0969,0.33506 0.105,0.36751 0.0124,0.0497 -0.0364,0.22609 0,0.26252 0.0124,0.0124 0.0525,-0.0175 0.0525,0 0,0.0231 -0.2444,0.50691 -0.26252,0.52502"
       id="path3-1-4-4" />
    <path
       style="fill:none;fill-opacity:1;stroke:#eccbff;stroke-width:0.264583;stroke-opacity:0.58427"
       d="m 205.89712,202.39855 c 0,-0.07 0.0137,-0.14137 0,-0.21001 -0.005,-0.0243 -0.0414,-0.0304 -0.0525,-0.0525 -0.0628,-0.12559 -0.007,-0.45824 0.0525,-0.57753 0.0221,-0.0443 0.0829,-0.0607 0.105,-0.105 0.0741,-0.14811 0.13596,-0.37693 0.21001,-0.52503 0.043,-0.0859 0.21652,-0.26251 0.10501,-0.26251"
       id="path4-4-0-7" />
    <path
       style="fill:none;fill-opacity:1;stroke:#eccbff;stroke-width:0.264583;stroke-opacity:0.58427"
       d="m 206.52715,200.19344 c -0.12293,-0.0307 -0.21329,-0.0372 -0.31502,-0.10501 -0.30398,-0.20265 -0.54938,-0.46454 -0.84004,-0.68253 -0.9032,-0.67741 -1.80669,-1.34869 -2.73014,-1.9951 -0.0918,-0.0643 -0.16825,-0.14942 -0.26251,-0.21001 -0.2885,-0.18547 -0.59797,-0.3042 -0.89255,-0.47253 -0.43932,-0.25104 -0.86791,-0.70055 -1.15505,-1.10255 -0.38143,-0.534 -0.67753,-1.66006 -0.84005,-2.31012 -0.0879,-0.35152 -0.007,-0.20208 -0.15751,-0.57753 -0.0816,-0.20406 -0.20076,-0.49973 -0.31501,-0.68254 -0.0393,-0.063 -0.10919,-0.10113 -0.15751,-0.1575 -0.2664,-0.31081 -0.5491,-0.61108 -0.89254,-0.84005 -0.12123,-0.0808 -0.26068,-0.0392 -0.42003,-0.0525 -0.65535,-0.0546 -0.0768,-0.0648 -0.84004,-0.105 -0.34954,-0.0184 -0.70004,0 -1.05005,0 -0.33252,0 -0.66568,0.0207 -0.99755,0 -0.30863,-0.0193 -0.58984,-0.15751 -0.89255,-0.15751"
       id="path6-9-7-8" />
    <path
       style="fill:none;fill-opacity:1;stroke:#eccbff;stroke-width:0.264583;stroke-opacity:0.58427"
       d="m 208.94227,198.14583 c 0.047,-0.21785 -0.42002,-0.10871 -0.42002,-0.26251 0,-0.0833 0.0593,0.0161 0.10501,-0.0525 0.0844,-0.12661 0.36752,-0.7757 0.36752,-0.89254"
       id="path7-5-5-4" />
    <path
       style="fill:none;fill-opacity:1;stroke:#eccbff;stroke-width:0.264583;stroke-opacity:0.58427"
       d="m 202.58945,202.66106 c -0.0525,-0.07 -0.10501,-0.14 -0.15751,-0.21001 -0.0175,0 -0.0401,0.0124 -0.0525,0 -0.57102,-0.57101 -0.21714,-0.45768 -0.89255,-0.15751 -0.0893,0.0397 -0.21001,0.0158 -0.21001,0.10501"
       id="path8-9-7-0" />
    <path
       style="fill:none;fill-opacity:1;stroke:#eccbff;stroke-width:0.264583;stroke-opacity:0.58427"
       d="m 2.3304421,202.82985 c -0.29604,0.1717 -0.66351,0.105 -0.99755,0.105 -0.12251,0 -0.24501,0 -0.36751995,0 -0.0525,0 -0.12038,0.0371 -0.15751,0 -0.0406,-0.0406 -0.0196,-0.22957 -0.0525,-0.26251 -0.10863,-0.10863 0.004,0.166 -0.105,-0.0525 -0.0618,-0.12366 -0.17362,-0.54531 -0.10501,-0.68253 0.0221,-0.0443 0.0776,-0.0638 0.10501,-0.10501 0.01,-0.0146 -0.0124,-0.0401 0,-0.0525 0.0124,-0.0124 0.0401,0.0124 0.0525,0 0.0247,-0.0248 -0.0248,-0.0803 0,-0.105 0.0124,-0.0124 0.0401,0.0124 0.0525,0 0.049,-0.049 0.056,-0.21348 0.10501,-0.26252 0.0124,-0.0124 0.0401,0.0124 0.0525,0 0.16114995,-0.16115 -0.0307,-0.0437 0.0525,-0.21001 0.008,-0.0156 0.0400999,0.0124 0.0524999,0 0.0263,-0.0262 0.0263,-0.0787 0.0525,-0.105 0.0247,-0.0248 0.0803,0.0248 0.105,0 0.0124,-0.0124 -0.0124,-0.0401 0,-0.0525 0.022,-0.022 0.12569,-0.0366 0.15751,-0.0525 0.0765,-0.0382 0.11241,-0.03 0.15751,-0.0525 0.0221,-0.0111 0.035,-0.07 0.0525,-0.0525 0.0328,0.0328 -0.0969,0.33506 -0.105,0.36751 -0.0124,0.0497 0.0364,0.22609 0,0.26252 -0.0124,0.0124 -0.0525,-0.0175 -0.0525,0 0,0.0231 0.2444,0.50691 0.26252,0.52502"
       id="path3-1-4" />
    <path
       style="fill:none;fill-opacity:1;stroke:#eccbff;stroke-width:0.264583;stroke-opacity:0.58427"
       d="m 3.1179821,202.88235 c 0,-0.07 -0.0137,-0.14137 0,-0.21001 0.005,-0.0243 0.0414,-0.0304 0.0525,-0.0525 0.0628,-0.12559 0.007,-0.45824 -0.0525,-0.57753 -0.0221,-0.0443 -0.0829,-0.0607 -0.105,-0.105 -0.0741,-0.14811 -0.13596,-0.37693 -0.21001,-0.52503 -0.043,-0.0859 -0.21652,-0.26251 -0.10501,-0.26251"
       id="path4-4-0" />
    <path
       style="fill:none;fill-opacity:1;stroke:#eccbff;stroke-width:0.264583;stroke-opacity:0.58427"
       d="m 2.4879521,200.67724 c 0.12293,-0.0307 0.21329,-0.0372 0.31502,-0.10501 0.30398,-0.20265 0.54938,-0.46454 0.84004,-0.68253 0.9032006,-0.67741 1.8066906,-1.34869 2.7301406,-1.9951 0.0918,-0.0643 0.16825,-0.14942 0.26251,-0.21001 0.2885,-0.18547 0.59797,-0.3042 0.89255,-0.47253 0.43932,-0.25104 0.86791,-0.70055 1.15505,-1.10255 0.38143,-0.534 0.67753,-1.66006 0.84005,-2.31012 0.0879,-0.35152 0.007,-0.20208 0.15751,-0.57753 0.0816,-0.20406 0.20076,-0.49973 0.31501,-0.68254 0.0393,-0.063 0.1091903,-0.10113 0.1575103,-0.1575 0.2664,-0.31081 0.5491,-0.61108 0.89254,-0.84005 0.12123,-0.0808 0.26068,-0.0392 0.42003,-0.0525 0.65535,-0.0546 0.0768,-0.0648 0.84004,-0.105 0.34954,-0.0184 0.70004,0 1.05005,0 0.33252,0 0.66568,0.0207 0.99755,0 0.30863,-0.0193 0.58984,-0.15751 0.89255,-0.15751"
       id="path6-9-7" />
    <path
       style="fill:none;fill-opacity:1;stroke:#eccbff;stroke-width:0.264583;stroke-opacity:0.58427"
       d="m 0.07283215,198.62963 c -0.047,-0.21785 0.42002,-0.10871 0.42002,-0.26251 0,-0.0833 -0.0593,0.0161 -0.10501,-0.0525 -0.0844,-0.12661 -0.36752,-0.7757 -0.36752,-0.89254"
       id="path7-5-5" />
    <path
       style="fill:none;fill-opacity:1;stroke:#eccbff;stroke-width:0.264583;stroke-opacity:0.58427"
       d="m 6.4256527,203.14486 c 0.0525,-0.07 0.10501,-0.14 0.15751,-0.21001 0.0175,0 0.0401,0.0124 0.0525,0 0.57102,-0.57101 0.21714,-0.45768 0.89255,-0.15751 0.0893,0.0397 0.21001,0.0158 0.21001,0.10501"
       id="path8-9-7" />
    <path
       style="fill:none;fill-opacity:1;stroke:#eccbff;stroke-width:0.264583;stroke-opacity:0.58427"
       d="m 2.106831,0.53747202 c -0.29604,-0.171699 -0.66351,-0.105006 -0.99755,-0.105006 -0.12251001,0 -0.24501001,0 -0.36752001,0 -0.0525,0 -0.12038,-0.03712 -0.15751,0 -0.0406,0.04059 -0.0196,0.22957 -0.0525,0.262514 -0.10863,0.10863 0.004,-0.166001 -0.105,0.0525 -0.0618,0.123664 -0.17362,0.54531098 -0.10501,0.68253398 0.0221,0.04427 0.0776,0.06382 0.10501,0.105006 0.01,0.01456 -0.0124,0.04013 0,0.0525 0.0124,0.01238 0.0401,-0.01237 0.0525,0 0.0247,0.02475 -0.0248,0.08026 0,0.105005 0.0124,0.01237 0.0401,-0.01238 0.0525,0 0.049,0.04904 0.056,0.213472 0.10501,0.262513 0.0124,0.01237 0.0401,-0.01237 0.0525,0 0.16115,0.161152 -0.0307,0.04366 0.0525,0.210011 0.008,0.01565 0.0401,-0.01238 0.0525,0 0.0263,0.02625 0.0263,0.07875 0.0525,0.105005 0.0247,0.02475 0.0803,-0.02475 0.105,0 0.0124,0.01237 -0.0124,0.04013 0,0.0525 0.022,0.022 0.12569001,0.03659 0.15751001,0.0525 0.0765,0.03823 0.11241,0.02995 0.15751,0.0525 0.0221,0.01107 0.035,0.07 0.0525,0.0525 0.0328,-0.03283 -0.0969,-0.335067 -0.105,-0.367518 -0.0124,-0.04969 0.0364,-0.22609 0,-0.262514 -0.0124,-0.01237 -0.0525,0.0175 -0.0525,0 0,-0.0231 0.2444,-0.506912 0.26252,-0.525026"
       id="path3-1" />
    <path
       style="fill:none;fill-opacity:1;stroke:#eccbff;stroke-width:0.264583;stroke-opacity:0.58427"
       d="m 2.894371,0.48496902 c 0,0.07 -0.0137,0.141367 0,0.210011 0.005,0.02427 0.0414,0.03036 0.0525,0.0525 0.0628,0.125588 0.007,0.45823898 -0.0525,0.57752898 -0.0221,0.04427 -0.0829,0.06073 -0.105,0.105005 -0.0741,0.148104 -0.13596,0.376923 -0.21001,0.525027 -0.043,0.08595 -0.21652,0.262513 -0.10501,0.262513"
       id="path4-4" />
    <path
       style="fill:none;fill-opacity:1;stroke:#eccbff;stroke-width:0.264583;stroke-opacity:0.58427"
       d="m 2.264341,2.690082 c 0.12293,0.03073 0.21329,0.03719 0.31502,0.105005 0.30398,0.202653 0.54938,0.464545 0.84004,0.682535 0.9032,0.677404 1.80669,1.348688 2.73014,1.995101 0.0918,0.06426 0.16825,0.149414 0.26251,0.210011 0.2885,0.185466 0.59797,0.304197 0.89255,0.472524 0.43932,0.25104 0.86791,0.700555 1.15505,1.102557 0.38143,0.533998 0.67753,1.660056 0.84005,2.310117 0.0879,0.35152 0.007,0.202079 0.15751,0.57753 0.0816,0.204056 0.20076,0.49973 0.31501,0.682535 0.0393,0.06296 0.10919,0.101133 0.15751,0.157508 0.2664,0.310801 0.5491,0.611077 0.89254,0.840043 0.12123,0.08082 0.26068,0.03922 0.42003,0.0525 0.65535,0.05461 0.0768,0.06484 0.84004,0.105006 0.34954,0.0184 0.70004,0 1.05005,0 0.33252,0 0.66568,-0.02074 0.99755,0 0.30863,0.01929 0.58984,0.157508 0.89255,0.157508"
       id="path6-9" />
    <path
       style="fill:none;fill-opacity:1;stroke:#eccbff;stroke-width:0.264583;stroke-opacity:0.58427"
       d="m -0.15077901,4.737686 c -0.047,0.217859 0.42002,0.108713 0.42002,0.262513 0,0.08326 -0.0593,-0.01611 -0.10501,0.0525 -0.0844,0.126612 -0.36752,0.775697 -0.36752,0.892546"
       id="path7-5" />
    <path
       style="fill:none;fill-opacity:1;stroke:#eccbff;stroke-width:0.264583;stroke-opacity:0.58427"
       d="m 6.202041,0.22245602 c 0.0525,0.07 0.10501,0.140007 0.15751,0.21001 0.0175,0 0.0401,-0.01238 0.0525,0 0.57102,0.57101598 0.21714,0.457688 0.89255,0.157509 0.0893,-0.0397 0.21001,-0.01584 0.21001,-0.105006"
       id="path8-9" />
    <ellipse
       style="fill:none;fill-opacity:1;stroke:#eccbff;stroke-width:0.264583;stroke-opacity:0.58427"
       id="path1"
       cx="106.62299"
       cy="101.4255"
       rx="83.457001"
       ry="82.7145" />
    <rect
       style="fill:none;fill-opacity:1;stroke:#eccbff;stroke-width:0.267532;stroke-opacity:0.58427"
       id="rect3"
       width="114.34205"
       height="117.60904"
       x="48.70948"
       y="43.363476" />
    <rect
       style="fill:none;fill-opacity:1;stroke:#eccbff;stroke-width:0.269756;stroke-opacity:0.58427"
       id="rect3-4"
       width="115.28796"
       height="118.73768"
       x="87.597458"
       y="-62.119717"
       transform="rotate(45)"
       ry="0" />
    <path
       style="fill:none;fill-opacity:1;stroke:#eccbff;stroke-width:0.264583;stroke-opacity:0.58427"
       d="m 207.01806,0.84004284 c 0.29604,-0.17169871 0.66351,-0.10500535 0.99755,-0.10500535 0.12251,0 0.24501,0 0.36752,0 0.0525,0 0.12038,-0.037125 0.15751,0 0.0406,0.0405942 0.0196,0.22956906 0.0525,0.26251339 0.10863,0.10862992 -0.004,-0.1660009 0.105,0.0525027 0.0618,0.1236643 0.17362,0.5453111 0.10501,0.6825348 -0.0221,0.044274 -0.0776,0.063819 -0.10501,0.1050053 -0.01,0.014562 0.0124,0.040128 0,0.052503 -0.0124,0.012375 -0.0401,-0.012375 -0.0525,0 -0.0247,0.02475 0.0248,0.080255 0,0.1050054 -0.0124,0.012375 -0.0401,-0.012375 -0.0525,0 -0.049,0.049042 -0.056,0.2134717 -0.10501,0.2625134 -0.0124,0.012375 -0.0401,-0.012375 -0.0525,0 -0.16115,0.1611517 0.0307,0.043655 -0.0525,0.2100107 -0.008,0.015653 -0.0401,-0.012375 -0.0525,0 -0.0263,0.026251 -0.0263,0.078754 -0.0525,0.1050053 -0.0247,0.02475 -0.0803,-0.02475 -0.105,0 -0.0124,0.012375 0.0124,0.040128 0,0.052503 -0.022,0.022001 -0.12569,0.036593 -0.15751,0.052503 -0.0765,0.038226 -0.11241,0.029954 -0.15751,0.052503 -0.0221,0.011068 -0.035,0.070004 -0.0525,0.052503 -0.0328,-0.032828 0.0969,-0.3350671 0.105,-0.3675187 0.0124,-0.049689 -0.0364,-0.2260893 0,-0.2625134 0.0124,-0.012375 0.0525,0.017501 0.0525,0 0,-0.023099 -0.2444,-0.5069119 -0.26252,-0.5250268"
       id="path3" />
    <path
       style="fill:none;fill-opacity:1;stroke:#eccbff;stroke-width:0.264583;stroke-opacity:0.58427"
       d="m 206.23052,0.78754017 c 0,0.0700036 0.0137,0.14136655 0,0.21001071 -0.005,0.0242694 -0.0414,0.0303656 -0.0525,0.0525027 -0.0628,0.1255888 -0.007,0.4582393 0.0525,0.5775294 0.0221,0.044274 0.0829,0.060731 0.105,0.1050054 0.0741,0.1481037 0.13596,0.376923 0.21001,0.5250268 0.043,0.085948 0.21652,0.2625133 0.10501,0.2625133"
       id="path4" />
    <path
       style="fill:none;fill-opacity:1;stroke:#eccbff;stroke-width:0.264583;stroke-opacity:0.58427"
       d="m 209.32818,3.7801928 c -0.0526,-0.038766 0.0217,-0.5177859 0,-0.5250267 -0.13014,-0.043378 -0.2542,0.014729 -0.36752,0.052503 -0.1398,0.046601 -0.50119,0.025768 -0.63003,0 -0.37039,-0.074077 -0.76612,-0.2100107 -1.15506,-0.2100107"
       id="path5" />
    <path
       style="fill:none;fill-opacity:1;stroke:#eccbff;stroke-width:0.264583;stroke-opacity:0.58427"
       d="m 206.86055,2.9926526 c -0.12293,0.030731 -0.21329,0.037187 -0.31502,0.1050054 -0.30398,0.2026534 -0.54938,0.4645454 -0.84004,0.6825348 -0.9032,0.6774042 -1.80669,1.3486878 -2.73014,1.9951017 -0.0918,0.064262 -0.16825,0.1494134 -0.26251,0.2100109 -0.2885,0.185466 -0.59797,0.3041962 -0.89255,0.4725239 -0.43932,0.2510401 -0.86791,0.7005547 -1.15505,1.1025563 -0.38143,0.5339987 -0.67753,1.6600561 -0.84005,2.3101178 -0.0879,0.3515196 -0.007,0.2020786 -0.15751,0.5775296 -0.0816,0.204056 -0.20076,0.49973 -0.31501,0.682535 -0.0393,0.06296 -0.10919,0.101133 -0.15751,0.157508 -0.2664,0.310801 -0.5491,0.611077 -0.89254,0.840043 -0.12123,0.08082 -0.26068,0.03922 -0.42003,0.0525 -0.65535,0.05461 -0.0768,0.06484 -0.84004,0.105006 -0.34954,0.0184 -0.70004,0 -1.05005,0 -0.33252,0 -0.66568,-0.02074 -0.99755,0 -0.30863,0.01929 -0.58984,0.157508 -0.89255,0.157508"
       id="path6" />
    <path
       style="fill:none;fill-opacity:1;stroke:#eccbff;stroke-width:0.264583;stroke-opacity:0.58427"
       d="m 209.27567,5.0402571 c 0.047,0.2178585 -0.42002,0.1087131 -0.42002,0.2625133 0,0.083265 0.0593,-0.01611 0.10501,0.052503 0.0844,0.1266119 0.36752,0.7756962 0.36752,0.8925454"
       id="path7" />
    <path
       style="fill:none;fill-opacity:1;stroke:#eccbff;stroke-width:0.264583;stroke-opacity:0.58427"
       d="m 202.92285,0.52502678 c -0.0525,0.0700036 -0.10501,0.14000715 -0.15751,0.21001071 -0.0175,0 -0.0401,-0.0123751 -0.0525,0 -0.57102,0.57101531 -0.21714,0.45768771 -0.89255,0.15750805 -0.0893,-0.0397027 -0.21001,-0.0158425 -0.21001,-0.10500537"
       id="path8" />
  </g>
</svg>
