<?xml version="1.0" encoding="UTF-8" standalone="no"?>
<!-- Created with Inkscape (http://www.inkscape.org/) -->

<svg
   width="210mm"
   height="54mm"
   viewBox="0 0 210 54"
   version="1.1"
   id="svg1"
   inkscape:version="1.3.2 (091e20e, 2023-11-25)"
   sodipodi:docname="WizardOfArcWordLogo.svg"
   xmlns:inkscape="http://www.inkscape.org/namespaces/inkscape"
   xmlns:sodipodi="http://sodipodi.sourceforge.net/DTD/sodipodi-0.dtd"
   xmlns="http://www.w3.org/2000/svg"
   xmlns:svg="http://www.w3.org/2000/svg">
  <sodipodi:namedview
     id="namedview1"
     pagecolor="#ffffff"
     bordercolor="#000000"
     borderopacity="0.25"
     inkscape:showpageshadow="2"
     inkscape:pageopacity="0.0"
     inkscape:pagecheckerboard="0"
     inkscape:deskcolor="#d1d1d1"
     inkscape:document-units="mm"
     inkscape:zoom="0.89085297"
     inkscape:cx="396.81071"
     inkscape:cy="381.65669"
     inkscape:window-width="1888"
     inkscape:window-height="1195"
     inkscape:window-x="973"
     inkscape:window-y="25"
     inkscape:window-maximized="0"
     inkscape:current-layer="layer1" />
  <defs
     id="defs1" />
  <g
     inkscape:label="Layer 1"
     inkscape:groupmode="layer"
     id="layer1">
    <path
       style="fill:#c977ff;fill-opacity:1;fill-rule:nonzero;stroke:none;stroke-width:0.28229"
       id="path24"
       d="m 143.31828,9.176095 c -3.4485,4.671421 -6.8572,-0.860006 -8.74999,2.694435 -2.69856,5.067566 0.85866,13.299273 -0.0673,19.711137 -0.17596,1.21844 -1.01865,3.396815 -1.01865,3.396815 0,0 9.44723,2.824445 10.35124,1.136628 -3.46697,-0.09516 -6.50828,-4.571898 -6.06815,-14.270619 0.37954,-12.118794 7.69377,-10.237761 11.86046,-7.568269 -1.92074,-6.1050373 -6.30765,-5.100127 -6.30765,-5.100127 z"
       sodipodi:nodetypes="caacccccc" />
    <path
       style="fill:#c977ff;fill-opacity:1;fill-rule:nonzero;stroke:none;stroke-width:0.28229"
       id="path24-26"
       d="m 99.11471,7.6143425 c 3.4485,4.6714205 6.8572,-0.860006 8.74999,2.6944345 2.69856,5.067566 -0.85866,13.299273 0.0673,19.711137 0.17596,1.21844 1.01865,3.396815 1.01865,3.396815 0,0 -9.44723,2.824445 -10.35124,1.136628 3.46697,-0.09516 6.50828,-4.571898 6.06815,-14.270619 C 104.28802,8.1639445 96.973786,10.044977 92.807096,12.714469 94.727836,6.6094325 99.11475,7.6143425 99.11475,7.6143425 Z"
       sodipodi:nodetypes="caacccccc" />
    <path
       style="fill:#c977ff;fill-opacity:1;fill-rule:nonzero;stroke:none;stroke-width:0.259841"
       id="path24-26-4"
       d="m 13.824324,10.29778 c 2.634658,5.18061 5.304601,0.975158 6.685006,2.988131 3.973888,5.794914 -0.97208,14.334469 1.090473,21.051513 0.430799,1.402968 2.279105,3.767071 2.279105,3.767071 0,0 -5.947743,3.478664 -6.638408,1.606873 2.648766,-0.105531 1.162464,-4.608437 0.826204,-15.364327 -0.289969,-13.439752 -5.878045,-11.353684 -9.0614,-8.393216 1.467447,-6.770489 4.819051,-5.656045 4.819051,-5.656045 z"
       sodipodi:nodetypes="caacccccc" />
    <path
       style="fill:#c977ff;fill-opacity:1;fill-rule:nonzero;stroke:none;stroke-width:0.291517"
       id="path24-26-4-5"
       d="m 28.3402,9.74618 c 3.266746,5.258947 6.709676,0.988659 8.288831,3.033315 4.815606,6.235143 -0.828228,14.56304 -1.261811,21.843859 -0.06904,1.159304 -0.213314,3.477682 -0.213314,3.477682 0,0 -9.538462,3.756927 -10.394825,1.856833 3.284243,-0.107128 9.258225,-5.031456 8.841301,-15.949986 C 33.240842,10.364906 26.312117,12.482517 22.365032,15.487751 24.184539,8.614884 28.340238,9.74618 28.340238,9.74618 Z"
       sodipodi:nodetypes="caacccccc" />
    <path
       style="fill:#c977ff;fill-opacity:1;fill-rule:nonzero;stroke:none;stroke-width:0.304469"
       id="path24-26-4-4"
       d="m 176.96203,7.5828924 c -3.74828,4.9996696 -7.45331,-0.9204365 -9.51065,2.8837666 -2.93315,5.423651 0.9333,14.23378 -0.0731,21.09619 -0.19126,1.304056 -1.10721,3.635501 -1.10721,3.635501 0,0 10.26851,3.022911 11.25111,1.216496 -3.76836,-0.101847 -7.07406,-4.893154 -6.59567,-15.273381 0.41254,-12.9703514 8.36261,-10.957142 12.89152,-8.100073 -2.08771,-6.5340211 -6.85599,-5.4584996 -6.85599,-5.4584996 z"
       sodipodi:nodetypes="caacccccc" />
    <path
       style="fill:#c977ff;fill-opacity:1;fill-rule:nonzero;stroke:none;stroke-width:0.304469"
       id="path24-26-4-5-9"
       d="m 164.91001,7.3621142 c -3.74829,4.9996698 -7.45331,-0.9204365 -9.51066,2.8837658 -2.93314,5.423652 0.93331,14.233781 -0.0731,21.096191 -0.19126,1.304056 -1.1072,3.635501 -1.1072,3.635501 0,0 10.26851,3.022911 11.2511,1.216496 -3.76836,-0.101847 -7.07404,-4.893154 -6.59566,-15.273381 0.41254,-12.9703516 8.3626,-10.957144 12.89151,-8.100073 -2.08771,-6.5340213 -6.85598,-5.4584998 -6.85598,-5.4584998 z"
       sodipodi:nodetypes="caacccccc" />
    <path
       style="fill:#c977ff;fill-opacity:1;fill-rule:nonzero;stroke:none;stroke-width:0.136073"
       id="path24-26-6"
       d="m 25.241169,24.881195 c 1.475549,2.536745 2.934068,-0.467014 3.743961,1.463172 1.154664,2.751867 0.996734,7.269682 0.0288,10.70384 -0.110813,0.393158 -0.642757,1.043331 -0.642757,1.043331 0,0 -7.275833,2.798223 -7.662642,1.881679 1.483451,-0.05167 7.096929,-2.945892 6.908602,-8.212638 -0.162394,-6.580931 -3.292021,-5.559464 -5.074867,-4.109836 0.821851,-3.31525 2.698927,-2.769548 2.698927,-2.769548 z"
       sodipodi:nodetypes="caacccccc" />
    <path
       style="fill:#c977ff;fill-opacity:1;fill-rule:nonzero;stroke:none;stroke-width:0.118221"
       id="path24-26-6-8"
       d="m 42.601087,20.98191 c 1.113784,2.536745 2.214713,-0.467014 2.826043,1.463172 0.871571,2.751867 0.752361,7.269682 0.02174,10.70384 -0.08364,0.393158 -0.485171,1.043331 -0.485171,1.043331 0,0 -5.491995,2.798223 -5.783969,1.881679 1.119749,-0.05167 5.356954,-2.945892 5.2148,-8.212638 -0.12258,-6.580931 -2.484907,-5.559464 -3.830647,-4.109836 0.620355,-3.31525 2.037223,-2.769548 2.037223,-2.769548 z"
       sodipodi:nodetypes="caacccccc" />
    <path
       style="fill:#c977ff;fill-opacity:1;fill-rule:nonzero;stroke:none;stroke-width:0.136073"
       id="path24-26-6-9"
       d="m 139.17255,19.288752 c -1.47555,2.536745 -2.93407,-0.467014 -3.74396,1.463172 -1.15466,2.751867 0.3674,7.221973 -0.0288,10.70384 -0.0753,0.661656 -0.43586,1.84459 -0.43586,1.84459 0,0 4.0423,1.533773 4.42911,0.617229 -1.48346,-0.05167 -2.78478,-2.482701 -2.59645,-7.749447 0.16239,-6.580931 3.29202,-5.559464 5.07486,-4.109836 -0.82185,-3.31525 -2.69892,-2.769548 -2.69892,-2.769548 z"
       sodipodi:nodetypes="caacccccc" />
    <path
       style="fill:#c977ff;fill-opacity:1;fill-rule:nonzero;stroke:none;stroke-width:0.14429"
       id="path24-26-6-9-0"
       d="m 160.57382,18.082418 c -1.55021,2.714996 -3.08253,-0.49983 -3.9334,1.565985 -1.21309,2.945234 0.38599,7.729444 -0.0302,11.455973 -0.0791,0.708149 -0.45791,1.974205 -0.45791,1.974205 0,0 3.49392,2.753612 3.9003,1.772665 -1.55853,-0.0553 -2.17277,-3.769219 -1.97491,-9.406047 0.17061,-7.043357 7.34869,-5.702988 9.22173,-4.151498 -0.86344,-3.548205 -3.33742,-4.323348 -3.33742,-4.323348 z"
       sodipodi:nodetypes="caacccccc" />
    <path
       style="fill:#c977ff;fill-opacity:1;fill-rule:nonzero;stroke:none;stroke-width:0.204161"
       id="path24-9"
       d="m 92.298625,20.66212 c -3.4485,2.443454 -6.8572,-0.449839 -8.75,1.409363 -2.698559,2.650664 0.85867,6.956381 -0.0673,10.310196 -0.17595,0.637324 -1.01865,1.776755 -1.01865,1.776755 0,0 9.44723,1.477366 10.35124,0.594529 -3.46697,-0.04977 -6.50828,-2.391397 -6.06815,-7.464458 0.37954,-6.338908 7.69377,-5.355006 11.860475,-3.95869 -1.920745,-3.193329 -6.307665,-2.667695 -6.307665,-2.667695 z"
       sodipodi:nodetypes="caacccccc" />
    <path
       style="fill:#c977ff;fill-opacity:1;fill-rule:nonzero;stroke:none;stroke-width:0.204161"
       id="path24-9-4"
       d="m 51.926058,15.807931 c 3.4485,2.443454 7.342562,-1.18809 8.75,1.409363 3.316131,6.119984 -6.011862,10.632816 -8.476027,19.084424 15.199741,-0.20717 22.776582,10.391929 61.514639,-1.571306 -14.25365,8.240581 -21.555426,10.8176 -28.489505,11.249763 -14.124994,0.880333 -15.409859,-8.366608 -46.513938,-4.42091 4.967825,-2.820579 19.207821,-14.051885 18.767691,-19.124946 -0.37954,-6.338908 -11.734533,-3.854151 -15.901233,-2.457835 1.92074,-3.193329 10.348423,-4.16855 10.348423,-4.16855 z"
       sodipodi:nodetypes="caccsccccc" />
    <path
       style="fill:#c977ff;fill-opacity:1;fill-rule:nonzero;stroke:none;stroke-width:0.169473"
       id="path24-2"
       d="m 103.28919,24.423168 c -3.4485,1.683684 -6.857197,-0.309964 -8.749997,0.971134 -2.69855,1.826462 -2.73319,5.262979 -0.0673,7.104327 2.08928,1.443048 9.757967,1.135763 9.757967,1.135763 0,0 3.8212,0.132757 4.72521,-0.475569 -3.46697,-0.03429 -11.658857,-0.674054 -11.21874,-4.169689 0.37954,-4.367877 7.69378,-3.689911 11.86047,-2.727767 -1.92074,-2.20039 -6.30765,-1.838199 -6.30765,-1.838199 z"
       sodipodi:nodetypes="caaccccc" />
    <path
       style="fill:#c977ff;fill-opacity:1;fill-rule:nonzero;stroke:none;stroke-width:0.217445"
       id="path24-1"
       d="m 68.871362,19.461614 c 3.4485,2.771756 6.8572,-0.510279 8.74999,1.598725 2.69856,3.006805 -0.85866,7.891033 0.0673,11.695469 0.17596,0.722953 1.01865,2.015477 1.01865,2.015477 0,0 -9.44723,1.675865 -10.35124,0.67441 3.46697,-0.05646 6.50828,-2.712704 6.06815,-8.467375 -0.37954,-7.190604 -7.69377,-6.074505 -11.86046,-4.490581 1.92074,-3.622382 6.30765,-3.026125 6.30765,-3.026125 z"
       sodipodi:nodetypes="caacccccc" />
    <path
       style="fill:#c977ff;fill-opacity:1;fill-rule:nonzero;stroke:none;stroke-width:0.165325"
       id="path24-3"
       d="m 72.767024,26.41625 c -3.448497,1.602279 -6.857201,-0.294978 -8.749997,0.924181 -2.698558,1.738155 -2.733194,5.00852 -0.06725,6.76084 2.089273,1.373279 9.757967,1.080851 9.757967,1.080851 0,0 3.821205,0.126339 4.725214,-0.452576 -3.466973,-0.03264 -11.658869,-0.641464 -11.21874,-3.968089 0.379538,-4.156695 7.693769,-3.511508 11.860467,-2.595883 C 77.153947,26.07157 72.767029,26.41625 72.767029,26.41625 Z"
       sodipodi:nodetypes="caaccccc" />
    <path
       style="fill:#c977ff;fill-opacity:1;fill-rule:nonzero;stroke:none;stroke-width:0.173403"
       id="path24-5"
       d="m 194.08351,23.011038 c -2.9131,2.086631 -5.79257,-0.384148 -7.39151,1.20355 -2.27958,2.263581 -2.30885,6.522545 -0.0568,8.804574 1.7649,1.788406 8.24299,1.407582 8.24299,1.407582 0,0 3.22794,0.164528 3.99159,-0.589386 -2.9287,-0.0425 -9.84876,-0.835372 -9.47695,-5.167602 0.3206,-5.413222 6.49926,-4.573002 10.01905,-3.380592 -1.62253,-2.727 -5.32835,-2.278126 -5.32835,-2.278126 z"
       sodipodi:nodetypes="caaccccc" />
    <path
       style="fill:#c977ff;fill-opacity:1;fill-rule:nonzero;stroke:none;stroke-width:0.204161"
       id="path24-6"
       d="m 185.39564,20.204593 c -3.4485,2.443455 -6.8572,-0.449839 -8.75,1.409363 -2.69855,2.650664 0.85867,6.956381 -0.0673,10.310196 -0.17595,0.637325 -1.01865,1.776755 -1.01865,1.776755 0,0 9.44723,1.477367 10.35124,0.59453 -3.46697,-0.04977 -6.50827,-2.391398 -6.06815,-7.464459 0.37954,-6.338908 7.69377,-5.355006 11.86046,-3.958689 -1.92073,-3.193329 -6.30765,-2.667696 -6.30765,-2.667696 z"
       sodipodi:nodetypes="caacccccc" />
    <path
       style="fill:#c977ff;fill-opacity:1;fill-rule:nonzero;stroke:none;stroke-width:0.132288"
       id="path24-5-8"
       d="m 125.89551,23.892395 c -1.78434,1.982663 -3.54808,-0.365008 -4.52747,1.143582 -1.39629,2.150797 -1.41422,6.197556 -0.0348,8.365882 1.08104,1.699298 5.04901,1.337449 5.04901,1.337449 0,0 1.97719,0.15633 2.44494,-0.56002 -1.79389,-0.04038 -6.03258,-0.793749 -5.80484,-4.910124 0.19637,-5.143505 3.98094,-4.345149 6.13689,-3.212152 -0.99384,-2.591126 -3.26373,-2.164617 -3.26373,-2.164617 z"
       sodipodi:nodetypes="caaccccc" />
    <path
       style="fill:#c977ff;fill-opacity:1;fill-rule:nonzero;stroke:none;stroke-width:0.132288"
       id="path24-5-4"
       d="m 127.30639,23.798388 c 1.78434,1.982664 3.54808,-0.365007 4.52746,1.143583 1.3963,2.150797 1.41423,6.197556 0.0348,8.365882 -1.08104,1.699298 -5.04901,1.337448 -5.04901,1.337448 0,0 -1.97718,0.156331 -2.44494,-0.560019 1.7939,-0.04038 6.03259,-0.793749 5.80484,-4.910124 -0.19637,-5.143506 -3.98094,-4.34515 -6.13689,-3.212152 0.99384,-2.591126 3.26374,-2.164618 3.26374,-2.164618 z"
       sodipodi:nodetypes="caaccccc" />
  </g>
</svg>
