<?xml version="1.0" encoding="UTF-8" standalone="no"?>
<!-- Created with Inkscape (http://www.inkscape.org/) -->

<svg
   width="210mm"
   height="54mm"
   viewBox="0 0 210 54"
   version="1.1"
   id="svg1"
   inkscape:version="1.3.2 (091e20e, 2023-11-25)"
   sodipodi:docname="WizardOfArcWordLogoCozy.svg"
   xmlns:inkscape="http://www.inkscape.org/namespaces/inkscape"
   xmlns:sodipodi="http://sodipodi.sourceforge.net/DTD/sodipodi-0.dtd"
   xmlns="http://www.w3.org/2000/svg"
   xmlns:svg="http://www.w3.org/2000/svg">
  <sodipodi:namedview
     id="namedview1"
     pagecolor="#ffffff"
     bordercolor="#000000"
     borderopacity="0.25"
     inkscape:showpageshadow="2"
     inkscape:pageopacity="0.0"
     inkscape:pagecheckerboard="0"
     inkscape:deskcolor="#d1d1d1"
     inkscape:document-units="mm"
     inkscape:zoom="0.99423757"
     inkscape:cx="499.88053"
     inkscape:cy="70.405708"
     inkscape:window-width="1888"
     inkscape:window-height="1195"
     inkscape:window-x="973"
     inkscape:window-y="25"
     inkscape:window-maximized="0"
     inkscape:current-layer="layer1"
     showgrid="false" />
  <defs
     id="defs1" />
  <g
     inkscape:label="Layer 1"
     inkscape:groupmode="layer"
     id="layer1">
    <path
       style="fill:#e05100;fill-opacity:1;fill-rule:nonzero;stroke:none;stroke-width:0.306965"
       id="path24"
       d="m 148.49804,9.9142086 c -3.78738,5.0295224 -7.53105,-0.9259324 -9.60984,2.9009854 -2.96375,5.456035 0.94304,14.318768 -0.0739,21.222153 -0.19325,1.311843 -1.11875,3.657208 -1.11875,3.657208 0,0 10.3756,3.040962 11.36844,1.22376 -3.80766,-0.102455 -7.14784,-4.922371 -6.66445,-15.364576 0.41683,-13.047797 8.44982,-11.022568 13.02597,-8.148438 -2.10949,-6.5730371 -6.9275,-5.4910924 -6.9275,-5.4910924 z"
       sodipodi:nodetypes="caacccccc" />
    <path
       style="fill:#e05100;fill-opacity:1;fill-rule:nonzero;stroke:none;stroke-width:0.306965"
       id="path24-26"
       d="m 99.950641,8.2327352 c 3.787379,5.0295228 7.531049,-0.9259323 9.609839,2.9009848 2.96374,5.456035 -0.94304,14.318769 0.0739,21.222153 0.19325,1.311844 1.11876,3.657208 1.11876,3.657208 0,0 -10.3756,3.040962 -11.36845,1.22376 3.80767,-0.102455 7.14784,-4.922371 6.66446,-15.364576 C 105.63233,8.8244686 97.599331,10.849697 93.023186,13.723827 95.132675,7.1507908 99.950685,8.2327352 99.950685,8.2327352 Z"
       sodipodi:nodetypes="caacccccc" />
    <path
       style="fill:#e05100;fill-opacity:1;fill-rule:nonzero;stroke:none;stroke-width:0.282554"
       id="path24-26-4"
       d="m 6.2788827,11.12188 c 2.8935623,5.577745 5.8258773,1.049911 7.3419323,3.217195 4.364397,6.239141 -1.067605,15.433321 1.197633,22.66528 0.473133,1.510517 2.503069,4.055847 2.503069,4.055847 0,0 -6.53222,3.745332 -7.290755,1.730053 2.909056,-0.113621 1.276697,-4.961711 0.907394,-16.542126 C 10.619692,11.778112 4.4824831,14.024094 0.98630395,17.211506 2.5979551,9.9220047 6.2789167,11.12188 6.2789167,11.12188 Z"
       sodipodi:nodetypes="caacccccc" />
    <path
       style="fill:#e05100;fill-opacity:1;fill-rule:nonzero;stroke:none;stroke-width:0.316998"
       id="path24-26-4-5"
       d="m 22.221214,10.527995 c 3.587765,5.662088 7.369027,1.064448 9.103364,3.265843 5.288829,6.713117 -0.909617,15.679414 -1.385808,23.518366 -0.07582,1.248174 -0.234276,3.744274 -0.234276,3.744274 0,0 -10.475794,4.044926 -11.41631,1.999174 3.606981,-0.11534 10.168018,-5.417157 9.710123,-17.17268 -0.394871,-14.688821 -8.004473,-12.408878 -12.339432,-9.173268 1.998307,-7.3997277 6.562381,-6.181709 6.562381,-6.181709 z"
       sodipodi:nodetypes="caacccccc" />
    <path
       style="fill:#e05100;fill-opacity:1;fill-rule:nonzero;stroke:none;stroke-width:0.331083"
       id="path24-26-4-4"
       d="m 185.44791,8.1988742 c -4.11662,5.3829348 -8.18573,-0.9909953 -10.44525,3.1048308 -3.22138,5.839417 1.02502,15.324913 -0.0803,22.713382 -0.21005,1.404022 -1.21601,3.914191 -1.21601,3.914191 0,0 11.27758,3.254641 12.35674,1.30975 -4.13867,-0.109654 -7.76922,-5.268253 -7.24382,-16.444208 0.45308,-13.9646327 9.18439,-11.797095 14.15835,-8.721008 -2.29286,-7.0349066 -7.52972,-5.8769378 -7.52972,-5.8769378 z"
       sodipodi:nodetypes="caacccccc" />
    <path
       style="fill:#e05100;fill-opacity:1;fill-rule:nonzero;stroke:none;stroke-width:0.331083"
       id="path24-26-4-5-9"
       d="m 172.21156,7.9611716 c -4.11663,5.3829344 -8.18574,-0.9909953 -10.44526,3.1048294 -3.22138,5.839419 1.02502,15.324915 -0.0803,22.713383 -0.21005,1.404023 -1.216,3.914192 -1.216,3.914192 0,0 11.27758,3.254641 12.35673,1.30975 -4.13867,-0.109655 -7.76919,-5.268254 -7.24381,-16.444208 0.45308,-13.9646333 9.18439,-11.797097 14.15835,-8.721009 -2.29287,-7.0349062 -7.52971,-5.8769374 -7.52971,-5.8769374 z"
       sodipodi:nodetypes="caacccccc" />
    <path
       style="fill:#e05100;fill-opacity:1;fill-rule:nonzero;stroke:none;stroke-width:0.147967"
       id="path24-26-6"
       d="m 18.817646,26.82323 c 1.620549,2.731207 3.222395,-0.502814 4.111875,1.575336 1.268131,2.96282 1.094681,7.826962 0.03163,11.524375 -0.121703,0.423297 -0.70592,1.123311 -0.70592,1.123311 0,0 -7.990819,3.012729 -8.41564,2.025925 1.629228,-0.05563 7.794335,-3.171718 7.587502,-8.842203 -0.178353,-7.085412 -3.615524,-5.985641 -5.573568,-4.424888 0.902613,-3.56939 2.964147,-2.981856 2.964147,-2.981856 z"
       sodipodi:nodetypes="caacccccc" />
    <path
       style="fill:#e05100;fill-opacity:1;fill-rule:nonzero;stroke:none;stroke-width:0.128555"
       id="path24-26-6-8"
       d="m 37.8835,22.625034 c 1.223234,2.731207 2.43235,-0.502814 3.103754,1.575336 0.957219,2.962819 0.826295,7.826961 0.02388,11.524375 -0.09186,0.423297 -0.532849,1.123311 -0.532849,1.123311 0,0 -6.031686,3.012729 -6.352352,2.025924 1.229786,-0.05563 5.883375,-3.171718 5.727252,-8.842202 -0.134626,-7.085412 -2.729096,-5.985642 -4.20708,-4.424888 0.681317,-3.569391 2.237419,-2.981856 2.237419,-2.981856 z"
       sodipodi:nodetypes="caacccccc" />
    <path
       style="fill:#e05100;fill-opacity:1;fill-rule:nonzero;stroke:none;stroke-width:0.147967"
       id="path24-26-6-9"
       d="m 143.94491,20.802082 c -1.62055,2.731207 -3.2224,-0.502815 -4.11187,1.575336 -1.26813,2.962819 0.4035,7.775595 -0.0316,11.524375 -0.0827,0.712377 -0.47869,1.985992 -0.47869,1.985992 0,0 4.43953,1.651349 4.86435,0.664545 -1.62924,-0.05563 -3.05844,-2.67302 -2.8516,-8.343504 0.17835,-7.085412 3.61552,-5.985642 5.57356,-4.424888 -0.90261,-3.569391 -2.96414,-2.981856 -2.96414,-2.981856 z"
       sodipodi:nodetypes="caacccccc" />
    <path
       style="fill:#e05100;fill-opacity:1;fill-rule:nonzero;stroke:none;stroke-width:0.156902"
       id="path24-26-6-9-0"
       d="m 167.44926,19.503273 c -1.70255,2.923122 -3.38545,-0.538146 -4.31993,1.68603 -1.3323,3.17101 0.42392,8.321968 -0.0332,12.334165 -0.0869,0.762434 -0.50291,2.125544 -0.50291,2.125544 0,0 3.83726,2.964698 4.28358,1.908554 -1.71169,-0.05954 -2.38629,-4.05816 -2.16898,-10.127096 0.18737,-7.583287 8.07083,-6.140168 10.12793,-4.469744 -0.94829,-3.820203 -3.66538,-4.654767 -3.66538,-4.654767 z"
       sodipodi:nodetypes="caacccccc" />
    <path
       style="fill:#e05100;fill-opacity:1;fill-rule:nonzero;stroke:none;stroke-width:0.222007"
       id="path24-9"
       d="m 92.464748,22.280729 c -3.787379,2.630765 -7.531047,-0.484322 -9.60985,1.517402 -2.963743,2.853859 0.94305,7.489644 -0.07391,11.100556 -0.19324,0.68618 -1.118751,1.912957 -1.118751,1.912957 0,0 10.375596,1.590618 11.368442,0.640105 -3.807664,-0.05359 -7.14784,-2.574717 -6.664459,-8.036669 0.416837,-6.824836 8.449827,-5.76551 13.025988,-4.262155 -2.109494,-3.438124 -6.927511,-2.872196 -6.927511,-2.872196 z"
       sodipodi:nodetypes="caacccccc" />
    <path
       style="fill:#e05100;fill-opacity:1;fill-rule:nonzero;stroke:none;stroke-width:0.222007"
       id="path24-9-4"
       d="m 48.124823,17.054428 c 3.78738,2.630764 8.064106,-1.279167 9.609851,1.517402 3.642003,6.58913 -6.60264,11.447907 -9.308955,20.547398 C 65.119118,38.896177 73.440525,50.307782 115.98532,37.427469 100.33098,46.299756 92.311671,49.074325 84.696189,49.539616 69.183151,50.487434 67.772024,40.531641 33.611388,44.779808 39.067395,41.743009 54.706736,29.650734 54.223355,24.188782 53.806518,17.363946 41.335685,20.039179 36.759529,21.542534 38.869018,18.104411 48.124878,17.054431 48.124878,17.054431 Z"
       sodipodi:nodetypes="caccsccccc" />
    <path
       style="fill:#e05100;fill-opacity:1;fill-rule:nonzero;stroke:none;stroke-width:0.184287"
       id="path24-2"
       d="m 104.53534,26.330092 c -3.78738,1.812752 -7.531043,-0.333725 -9.609846,1.045579 -2.963733,1.966475 -3.001777,5.666429 -0.07391,7.648931 2.29459,1.553669 10.716866,1.222828 10.716866,1.222828 0,0 4.19671,0.142934 5.18955,-0.512025 -3.80766,-0.03692 -12.804554,-0.725726 -12.321188,-4.489329 0.416837,-4.70271 8.449838,-3.972772 13.025978,-2.936872 -2.10948,-2.369068 -6.92749,-1.979112 -6.92749,-1.979112 z"
       sodipodi:nodetypes="caaccccc" />
    <path
       style="fill:#e05100;fill-opacity:1;fill-rule:nonzero;stroke:none;stroke-width:0.236452"
       id="path24-1"
       d="m 66.73532,20.988195 c 3.787379,2.984233 7.531047,-0.549396 9.609839,1.72128 2.963744,3.237301 -0.943039,8.495944 0.07391,12.592021 0.193251,0.778373 1.118751,2.169979 1.118751,2.169979 0,0 -10.375596,1.804334 -11.368442,0.726109 3.807664,-0.06079 7.14784,-2.920655 6.664459,-9.116467 -0.416837,-7.741822 -8.449827,-6.540165 -13.025972,-4.83482 2.109489,-3.900067 6.927494,-3.258102 6.927494,-3.258102 z"
       sodipodi:nodetypes="caacccccc" />
    <path
       style="fill:#e05100;fill-opacity:1;fill-rule:nonzero;stroke:none;stroke-width:0.179776"
       id="path24-3"
       d="m 71.013803,28.47596 c -3.787376,1.725106 -7.531049,-0.317591 -9.609847,0.995027 -2.963742,1.871398 -3.001782,5.392463 -0.07386,7.279112 2.294583,1.478552 10.716869,1.163707 10.716869,1.163707 0,0 4.19671,0.136024 5.189555,-0.48727 -3.807668,-0.03514 -12.804571,-0.690637 -12.321191,-4.272274 0.416835,-4.475339 8.449826,-3.780694 13.025979,-2.794879 -2.109486,-2.254526 -6.9275,-1.883423 -6.9275,-1.883423 z"
       sodipodi:nodetypes="caaccccc" />
    <path
       style="fill:#e05100;fill-opacity:1;fill-rule:nonzero;stroke:none;stroke-width:0.18856"
       id="path24-5"
       d="m 204.2519,24.809711 c -3.19937,2.246588 -6.3618,-0.413596 -8.11787,1.295812 -2.50359,2.437102 -2.53573,7.02255 -0.0624,9.479515 1.93834,1.925501 9.05302,1.515484 9.05302,1.515484 0,0 3.54515,0.177141 4.38384,-0.634567 -3.2165,-0.04576 -10.81659,-0.89941 -10.40824,-5.56374 0.35211,-5.828189 7.13793,-4.923559 11.00361,-3.639742 -1.78197,-2.936046 -5.85196,-2.452762 -5.85196,-2.452762 z"
       sodipodi:nodetypes="caaccccc" />
    <path
       style="fill:#e05100;fill-opacity:1;fill-rule:nonzero;stroke:none;stroke-width:0.222007"
       id="path24-6"
       d="m 194.71028,21.788129 c -3.78738,2.630766 -7.53105,-0.484322 -9.60985,1.517402 -2.96373,2.853859 0.94305,7.489644 -0.0739,11.100555 -0.19324,0.686182 -1.11875,1.912958 -1.11875,1.912958 0,0 10.37559,1.590619 11.36844,0.640105 -3.80766,-0.05359 -7.14783,-2.574717 -6.66446,-8.036669 0.41684,-6.824836 8.44983,-5.76551 13.02597,-4.262154 -2.10948,-3.438124 -6.92749,-2.872197 -6.92749,-2.872197 z"
       sodipodi:nodetypes="caacccccc" />
    <path
       style="fill:#e05100;fill-opacity:1;fill-rule:nonzero;stroke:none;stroke-width:0.143851"
       id="path24-5-8"
       d="m 129.36315,25.758631 c -1.95968,2.13465 -3.89674,-0.392989 -4.97237,1.231247 -1.53351,2.315672 -1.5532,6.672648 -0.0382,9.007194 1.18727,1.829562 5.54517,1.439975 5.54517,1.439975 0,0 2.17148,0.168314 2.6852,-0.60295 -1.97018,-0.04348 -6.6254,-0.854596 -6.37528,-5.286525 0.21567,-5.537796 4.37214,-4.678239 6.73996,-3.458389 -1.09151,-2.789756 -3.58446,-2.330552 -3.58446,-2.330552 z"
       sodipodi:nodetypes="caaccccc" />
    <path
       style="fill:#e05100;fill-opacity:1;fill-rule:nonzero;stroke:none;stroke-width:0.143851"
       id="path24-5-4"
       d="m 130.91268,25.657418 c 1.95968,2.134651 3.89674,-0.392988 4.97237,1.231247 1.53351,2.315673 1.5532,6.672649 0.0382,9.007194 -1.18728,1.829563 -5.54517,1.439974 -5.54517,1.439974 0,0 -2.17148,0.168315 -2.6852,-0.602949 1.97018,-0.04348 6.6254,-0.854596 6.37527,-5.286524 -0.21567,-5.537797 -4.37214,-4.678241 -6.73995,-3.458389 1.0915,-2.789757 3.58446,-2.330553 3.58446,-2.330553 z"
       sodipodi:nodetypes="caaccccc" />
    <path
       style="fill:#fffa1f;fill-opacity:1;fill-rule:nonzero;stroke:none;stroke-width:0.28229"
       id="path24-37"
       d="m 148.31265,10.727921 c -3.4485,4.671421 -6.8572,-0.8600058 -8.74999,2.694435 -2.69856,5.067566 0.85866,13.299273 -0.0673,19.711137 -0.17596,1.21844 -1.01865,3.396815 -1.01865,3.396815 0,0 9.44723,2.824445 10.35124,1.136628 -3.46697,-0.09516 -6.50828,-4.571898 -6.06815,-14.270619 0.37954,-12.118794 7.69377,-10.237761 11.86046,-7.568269 -1.92074,-6.1050368 -6.30765,-5.100127 -6.30765,-5.100127 z"
       sodipodi:nodetypes="caacccccc" />
    <path
       style="fill:#fffa1f;fill-opacity:1;fill-rule:nonzero;stroke:none;stroke-width:0.28229"
       id="path24-26-9"
       d="m 101.44791,9.432285 c 3.4485,4.671421 6.8572,-0.860006 8.74999,2.694435 2.69856,5.067566 -0.85866,13.299273 0.0673,19.711137 0.17596,1.21844 1.01865,3.396815 1.01865,3.396815 0,0 -9.44723,2.824445 -10.35124,1.136628 3.46697,-0.09516 6.50828,-4.571898 6.06815,-14.270619 -0.37954,-12.118794 -7.69378,-10.237761 -11.86047,-7.568269 1.92074,-6.105037 6.30766,-5.100127 6.30766,-5.100127 z"
       sodipodi:nodetypes="caacccccc" />
    <path
       style="fill:#fffa1f;fill-opacity:1;fill-rule:nonzero;stroke:none;stroke-width:0.259841"
       id="path24-26-4-0"
       d="m 6.9764899,11.982665 c 2.634658,5.18061 5.3046011,0.975158 6.6850061,2.988131 3.973888,5.794914 -0.97208,14.334469 1.090473,21.051513 0.430799,1.402968 2.279105,3.767071 2.279105,3.767071 0,0 -5.947743,3.478664 -6.638408,1.606873 C 13.041432,41.290722 11.55513,36.787816 11.21887,26.031926 10.928901,12.592174 5.3408249,14.678242 2.1574699,17.63871 c 1.467447,-6.770489 4.819051,-5.656045 4.819051,-5.656045 z"
       sodipodi:nodetypes="caacccccc" />
    <path
       style="fill:#fffa1f;fill-opacity:1;fill-rule:nonzero;stroke:none;stroke-width:0.291517"
       id="path24-26-4-5-2"
       d="m 22.157658,11.431065 c 3.266746,5.258947 6.709676,0.988659 8.288831,3.033315 4.815606,6.235143 -0.828228,14.56304 -1.261811,21.843859 -0.06904,1.159304 -0.213314,3.477682 -0.213314,3.477682 0,0 -9.538462,3.756927 -10.394825,1.856833 3.284243,-0.107128 9.258225,-5.031456 8.841301,-15.949986 -0.35954,-13.642977 -7.288265,-11.525366 -11.23535,-8.520132 1.819507,-6.872867 5.975206,-5.741571 5.975206,-5.741571 z"
       sodipodi:nodetypes="caacccccc" />
    <path
       style="fill:#fffa1f;fill-opacity:1;fill-rule:nonzero;stroke:none;stroke-width:0.304469"
       id="path24-26-4-4-3"
       d="m 184.48451,9.5338934 c -3.74828,4.9996696 -7.45331,-0.920436 -9.51065,2.8837666 -2.93315,5.423651 0.9333,14.23378 -0.0731,21.09619 -0.19126,1.304056 -1.10721,3.635501 -1.10721,3.635501 0,0 10.26851,3.022911 11.25111,1.216496 -3.76836,-0.101847 -7.07406,-4.893154 -6.59567,-15.273381 0.41254,-12.970351 8.36261,-10.957142 12.89152,-8.100073 -2.08771,-6.5340206 -6.85599,-5.4584996 -6.85599,-5.4584996 z"
       sodipodi:nodetypes="caacccccc" />
    <path
       style="fill:#fffa1f;fill-opacity:1;fill-rule:nonzero;stroke:none;stroke-width:0.304469"
       id="path24-26-4-5-9-9"
       d="m 172.03331,8.3817066 c -3.74829,4.9996704 -7.45331,-0.920436 -9.51066,2.8837664 -2.93314,5.423652 0.93331,14.233781 -0.0731,21.096191 -0.19126,1.304056 -1.1072,3.635501 -1.1072,3.635501 0,0 10.26851,3.022911 11.2511,1.216496 -3.76836,-0.101847 -7.07404,-4.893154 -6.59566,-15.273381 0.41254,-12.9703524 8.3626,-10.957144 12.89151,-8.100073 -2.08771,-6.5340214 -6.85598,-5.4585004 -6.85598,-5.4585004 z"
       sodipodi:nodetypes="caacccccc" />
    <path
       style="fill:#fffa1f;fill-opacity:1;fill-rule:nonzero;stroke:none;stroke-width:0.136073"
       id="path24-26-6-97"
       d="m 19.058627,27.098313 c 1.475549,2.536745 2.934068,-0.467014 3.743961,1.463172 1.154664,2.751867 0.996734,7.269682 0.0288,10.70384 -0.110813,0.393158 -0.642757,1.043331 -0.642757,1.043331 0,0 -7.275833,2.798223 -7.662642,1.881679 1.483451,-0.05167 7.096929,-2.945892 6.908602,-8.212638 -0.162394,-6.580931 -3.292021,-5.559464 -5.074867,-4.109836 0.821851,-3.31525 2.698927,-2.769548 2.698927,-2.769548 z"
       sodipodi:nodetypes="caacccccc" />
    <path
       style="fill:#fffa1f;fill-opacity:1;fill-rule:nonzero;stroke:none;stroke-width:0.118221"
       id="path24-26-6-8-0"
       d="m 37.616071,22.799853 c 1.113784,2.536745 2.214713,-0.467014 2.826043,1.463172 0.871571,2.751867 0.752361,7.269682 0.02174,10.70384 -0.08364,0.393158 -0.485171,1.043331 -0.485171,1.043331 0,0 -5.491995,2.798223 -5.783969,1.881679 1.119749,-0.05167 5.356954,-2.945892 5.2148,-8.212638 -0.12258,-6.580931 -2.484907,-5.559464 -3.830647,-4.109836 0.620355,-3.31525 2.037223,-2.769548 2.037223,-2.769548 z"
       sodipodi:nodetypes="caacccccc" />
    <path
       style="fill:#fffa1f;fill-opacity:1;fill-rule:nonzero;stroke:none;stroke-width:0.136073"
       id="path24-26-6-9-3"
       d="m 143.36857,20.70752 c -1.47555,2.536745 -2.93407,-0.467014 -3.74396,1.463172 -1.15466,2.751867 0.3674,7.221973 -0.0288,10.70384 -0.0753,0.661656 -0.43586,1.84459 -0.43586,1.84459 0,0 4.0423,1.533773 4.42911,0.617229 -1.48346,-0.05167 -2.78478,-2.482701 -2.59645,-7.749447 0.16239,-6.580931 3.29202,-5.559464 5.07486,-4.109836 -0.82185,-3.31525 -2.69892,-2.769548 -2.69892,-2.769548 z"
       sodipodi:nodetypes="caacccccc" />
    <path
       style="fill:#fffa1f;fill-opacity:1;fill-rule:nonzero;stroke:none;stroke-width:0.14429"
       id="path24-26-6-9-0-9"
       d="m 167.29795,19.235069 c -1.55021,2.714996 -3.08253,-0.49983 -3.9334,1.565985 -1.21309,2.945234 0.38599,7.729444 -0.0302,11.455973 -0.0791,0.708149 -0.45791,1.974205 -0.45791,1.974205 0,0 3.49392,2.753612 3.9003,1.772665 -1.55853,-0.0553 -2.17277,-3.769219 -1.97491,-9.406047 0.17061,-7.043357 7.34869,-5.702988 9.22173,-4.151498 -0.86344,-3.548205 -3.33742,-4.323348 -3.33742,-4.323348 z"
       sodipodi:nodetypes="caacccccc" />
    <path
       style="fill:#fffa1f;fill-opacity:1;fill-rule:nonzero;stroke:none;stroke-width:0.204161"
       id="path24-9-8"
       d="m 92.902061,22.74618 c -3.4485,2.443454 -6.8572,-0.449839 -8.749999,1.409363 -2.698559,2.650664 0.85867,6.956381 -0.0673,10.310196 -0.17595,0.637324 -1.01865,1.776755 -1.01865,1.776755 0,0 9.447229,1.477366 10.351239,0.594529 -3.46697,-0.04977 -6.50828,-2.391397 -6.06815,-7.464458 0.37954,-6.338908 7.69377,-5.355006 11.86048,-3.95869 -1.92075,-3.193329 -6.30767,-2.667695 -6.30767,-2.667695 z"
       sodipodi:nodetypes="caacccccc" />
    <path
       style="fill:#fffa1f;fill-opacity:1;fill-rule:nonzero;stroke:none;stroke-width:0.204161"
       id="path24-9-4-6"
       d="m 48.936918,17.625874 c 3.4485,2.443454 7.342562,-1.18809 8.75,1.409363 3.316131,6.119984 -6.011862,10.632816 -8.476027,19.084424 15.199741,-0.20717 22.776582,10.391929 61.514639,-1.571306 -14.253646,8.240581 -21.555426,10.8176 -28.489506,11.249763 -14.124993,0.880333 -15.409858,-8.366608 -46.513937,-4.42091 4.967825,-2.820579 19.207821,-14.051885 18.767691,-19.124946 -0.37954,-6.338908 -11.734533,-3.854151 -15.901233,-2.457835 1.92074,-3.193329 10.348423,-4.16855 10.348423,-4.16855 z"
       sodipodi:nodetypes="caccsccccc" />
    <path
       style="fill:#fffa1f;fill-opacity:1;fill-rule:nonzero;stroke:none;stroke-width:0.169473"
       id="path24-2-5"
       d="m 103.89263,26.374169 c -3.4485,1.683684 -6.857199,-0.309964 -8.749999,0.971134 -2.69855,1.826462 -2.73319,5.262979 -0.0673,7.104327 2.08928,1.443048 9.757969,1.135763 9.757969,1.135763 0,0 3.8212,0.132757 4.72521,-0.475569 -3.46697,-0.03429 -11.658859,-0.674054 -11.218739,-4.169689 0.37954,-4.367877 7.693779,-3.689911 11.860469,-2.727767 -1.92074,-2.20039 -6.30765,-1.838199 -6.30765,-1.838199 z"
       sodipodi:nodetypes="caaccccc" />
    <path
       style="fill:#fffa1f;fill-opacity:1;fill-rule:nonzero;stroke:none;stroke-width:0.217445"
       id="path24-1-7"
       d="m 66.946689,21.678732 c 3.4485,2.771756 6.8572,-0.510279 8.74999,1.598725 2.69856,3.006805 -0.85866,7.891033 0.0673,11.695469 0.17596,0.722953 1.01865,2.015477 1.01865,2.015477 0,0 -9.44723,1.675865 -10.35124,0.67441 3.46697,-0.05646 6.50828,-2.712704 6.06815,-8.467375 -0.37954,-7.190604 -7.69377,-6.074505 -11.86046,-4.490581 1.92074,-3.622382 6.30765,-3.026125 6.30765,-3.026125 z"
       sodipodi:nodetypes="caacccccc" />
    <path
       style="fill:#fffa1f;fill-opacity:1;fill-rule:nonzero;stroke:none;stroke-width:0.165325"
       id="path24-3-6"
       d="m 69.777884,28.766427 c -3.448497,1.602279 -6.857201,-0.294978 -8.749997,0.924181 -2.698558,1.738155 -2.733194,5.00852 -0.06725,6.76084 2.089273,1.373279 9.757967,1.080851 9.757967,1.080851 0,0 3.821205,0.126339 4.725214,-0.452576 -3.466973,-0.03264 -11.658869,-0.641464 -11.21874,-3.968089 0.379538,-4.156695 7.693769,-3.511508 11.860467,-2.595883 -1.920738,-2.094004 -6.307656,-1.749324 -6.307656,-1.749324 z"
       sodipodi:nodetypes="caaccccc" />
    <path
       style="fill:#fffa1f;fill-opacity:1;fill-rule:nonzero;stroke:none;stroke-width:0.173403"
       id="path24-5-2"
       d="m 204.66633,24.962039 c -2.9131,2.086631 -5.79257,-0.384148 -7.39151,1.20355 -2.27958,2.263581 -2.30885,6.522545 -0.0568,8.804574 1.7649,1.788406 8.24299,1.407582 8.24299,1.407582 0,0 3.22794,0.164528 3.99159,-0.589386 -2.9287,-0.0425 -9.84876,-0.835372 -9.47695,-5.167602 0.3206,-5.413222 6.49926,-4.573002 10.01905,-3.380592 -1.62253,-2.727 -5.32835,-2.278126 -5.32835,-2.278126 z"
       sodipodi:nodetypes="caaccccc" />
    <path
       style="fill:#fffa1f;fill-opacity:1;fill-rule:nonzero;stroke:none;stroke-width:0.204161"
       id="path24-6-7"
       d="m 194.78094,22.421711 c -3.4485,2.443455 -6.8572,-0.449839 -8.75,1.409363 -2.69855,2.650664 0.85867,6.956381 -0.0673,10.310196 -0.17595,0.637325 -1.01865,1.776755 -1.01865,1.776755 0,0 9.44723,1.477367 10.35124,0.59453 -3.46697,-0.04977 -6.50827,-2.391398 -6.06815,-7.464459 0.37954,-6.338908 7.69377,-5.355006 11.86046,-3.958689 -1.92073,-3.193329 -6.30765,-2.667696 -6.30765,-2.667696 z"
       sodipodi:nodetypes="caacccccc" />
    <path
       style="fill:#fffa1f;fill-opacity:1;fill-rule:nonzero;stroke:none;stroke-width:0.132288"
       id="path24-5-8-0"
       d="m 129.29318,26.37563 c -1.78434,1.982663 -3.54808,-0.365008 -4.52747,1.143582 -1.39629,2.150797 -1.41422,6.197556 -0.0348,8.365882 1.08104,1.699298 5.04901,1.337449 5.04901,1.337449 0,0 1.97719,0.15633 2.44494,-0.56002 -1.79389,-0.04038 -6.03258,-0.793749 -5.80484,-4.910124 0.19637,-5.143505 3.98094,-4.345149 6.13689,-3.212152 -0.99384,-2.591126 -3.26373,-2.164617 -3.26373,-2.164617 z"
       sodipodi:nodetypes="caaccccc" />
    <path
       style="fill:#fffa1f;fill-opacity:1;fill-rule:nonzero;stroke:none;stroke-width:0.132288"
       id="path24-5-4-3"
       d="m 130.83712,26.148565 c 1.78434,1.982664 3.54808,-0.365007 4.52746,1.143583 1.3963,2.150797 1.41423,6.197556 0.0348,8.365882 -1.08104,1.699298 -5.04901,1.337448 -5.04901,1.337448 0,0 -1.97718,0.156331 -2.44494,-0.560019 1.7939,-0.04038 6.03259,-0.793749 5.80484,-4.910124 -0.19637,-5.143506 -3.98094,-4.34515 -6.13689,-3.212152 0.99384,-2.591126 3.26374,-2.164618 3.26374,-2.164618 z"
       sodipodi:nodetypes="caaccccc" />
  </g>
</svg>
