<?xml version="1.0" encoding="UTF-8" standalone="no"?>
<!-- Created with Inkscape (http://www.inkscape.org/) -->

<svg
   width="210mm"
   height="297mm"
   viewBox="0 0 210 297"
   version="1.1"
   id="svg1"
   inkscape:version="1.3.2 (091e20e, 2023-11-25)"
   sodipodi:docname="zyCrucible.svg"
   xmlns:inkscape="http://www.inkscape.org/namespaces/inkscape"
   xmlns:sodipodi="http://sodipodi.sourceforge.net/DTD/sodipodi-0.dtd"
   xmlns="http://www.w3.org/2000/svg"
   xmlns:svg="http://www.w3.org/2000/svg">
  <sodipodi:namedview
     id="namedview1"
     pagecolor="#ffffff"
     bordercolor="#000000"
     borderopacity="0.25"
     inkscape:showpageshadow="2"
     inkscape:pageopacity="0.0"
     inkscape:pagecheckerboard="0"
     inkscape:deskcolor="#d1d1d1"
     inkscape:document-units="mm"
     inkscape:zoom="0.89449801"
     inkscape:cx="57.574192"
     inkscape:cy="575.74192"
     inkscape:window-width="1672"
     inkscape:window-height="905"
     inkscape:window-x="893"
     inkscape:window-y="1478"
     inkscape:window-maximized="0"
     inkscape:current-layer="layer1" />
  <defs
     id="defs1" />
  <g
     inkscape:label="Layer 1"
     inkscape:groupmode="layer"
     id="layer1">
    <path
       style="fill:#feca8a;fill-opacity:1;stroke:none;stroke-width:0.264583"
       d="m 43.096767,88.28561 c 0,0 29.538451,-8.959475 44.352013,-10.041964 14.81356,-1.082489 33.26617,-0.644063 43.51518,3.34732 10.24901,3.991383 13.63224,8.915383 17.57344,13.807702 3.9412,4.892322 6.69465,13.807702 6.69465,13.807702 0,0 -18.45079,46.38533 -26.36017,74.89632 4.22466,24.32684 17.57345,69.45693 17.57345,69.45693 0,0 -25.47352,8.40076 -42.67836,8.3683 -17.204844,-0.0325 -58.578127,-11.71562 -58.578127,-11.71562 0,0 -26.922452,-65.90898 -25.941743,-94.14343 0.980709,-28.23445 23.849667,-67.78326 23.849667,-67.78326 z"
       id="path2"
       sodipodi:nodetypes="czzzccczczc" />
    <path
       style="fill:#fffa07;fill-opacity:1;stroke:none;stroke-width:0.264583"
       d="m 46.862505,91.214516 c 0,0 1.651837,5.480685 8.786719,9.205134 7.134882,3.72445 23.205548,4.24436 35.146877,5.4394 11.941329,1.19504 27.892369,-0.31342 37.238739,-1.56824 9.34636,-1.25482 18.51485,-1.15024 18.51485,-1.15024 0,0 -5.34358,-7.913452 -11.71604,-11.926582 -6.37246,-4.01313 -17.01663,-5.295296 -24.37203,-5.857284 -7.3554,-0.561988 -14.07597,-0.10689 -22.17601,0.418415 -8.10004,0.525305 -19.46077,1.971382 -26.360159,2.928906 -6.899389,0.957524 -15.062946,2.510491 -15.062946,2.510491 z"
       id="path3"
       sodipodi:nodetypes="czzzczzzzc" />
    <path
       style="fill:#fffa07;fill-opacity:0.318725;stroke:none;stroke-width:0.264583"
       d="m 30.207248,145.19008 c 1.53972,-6.9037 4.413409,-15.15462 9.205133,-22.17601 4.791724,-7.02139 4.546394,-7.61059 17.155025,-10.87879 12.608631,-3.2682 46.823304,2.17181 57.741304,3.34732 10.918,1.17551 7.94989,1.25525 7.94989,1.25525 0,0 5.04089,-0.12284 6.27623,10.87879 1.23534,11.00163 -14.0159,35.3282 -15.89978,51.46507 -1.88388,16.13687 0.0995,32.45261 2.9289,43.51518 2.82938,11.06257 13.669,14.94347 10.46039,22.59442 -3.20861,7.65095 -14.52813,7.22115 -23.43126,8.36831 -8.903129,1.14716 -21.404734,-0.93337 -28.870652,-2.51049 -7.465918,-1.57712 -8.913155,0.72765 -15.899778,-5.4394 -6.986623,-6.16705 -12.229055,-21.45344 -17.155022,-35.14688 -4.925967,-13.69344 -10.237484,-35.80747 -11.297211,-46.8625 -1.059727,-11.05503 -0.702889,-11.50657 0.836831,-18.41027 z"
       id="path4"
       sodipodi:nodetypes="zzzzczzzzzzzzzz" />
    <path
       style="fill:#fffa07;fill-opacity:0.318725;stroke:none;stroke-width:0.264583"
       d="M -51.465072,74.477908 -88.704025,37.65737"
       id="path5" />
    <path
       style="fill:#000000;fill-opacity:1;fill-rule:nonzero;stroke:none;stroke-width:0.264583"
       id="path6"
       d="m 90.26042,162.68018 c -3.153314,1.13786 -10.203501,0.12986 -10.203501,0.12986 0,0 5.736923,2.8919 11.428048,1.13716 2.701104,-0.9166 9.276523,-5.29892 9.276523,-5.29892 0,0 -7.347757,2.89404 -10.50107,4.0319 z"
       sodipodi:nodetypes="zcccz" />
    <path
       style="fill:#000000;fill-opacity:1;fill-rule:nonzero;stroke:none;stroke-width:0.264583"
       id="path7"
       d="m 90.690495,162.88211 c 5.948771,5.4558 15.787115,11.35058 19.142225,12.42715 3.3551,1.07658 14.07307,1.89526 19.77713,0.81164 1.03792,-0.40214 3.90941,-2.07865 4.90085,-2.58216 l -1.11801,-1.43327 c 1.09874,0.0193 -3.79015,2.22608 -7.494,2.82185 -3.70386,0.59576 -7.22908,0.24924 -12.16867,-0.23646 -4.93959,-0.4857 -17.480818,-9.50624 -23.039525,-11.80875 z"
       sodipodi:nodetypes="czccczzc" />
    <path
       style="fill:#000000;fill-opacity:1;fill-rule:nonzero;stroke:none;stroke-width:0.264583"
       id="path8"
       d="m 123.87967,163.47233 c 3.18426,0.46005 3.54777,-0.004 5.42195,-2.01027 1.87418,-2.0066 0.31727,-4.19319 -0.46266,-5.79452 -0.77992,-1.60133 -0.82843,-1.60976 -1.26826,-3.37438 l -1.99336,-6.63322 0,0.90474 c 0,1.81962 0.92661,5.75313 1.17476,7.55251 0.17127,1.59905 2.44,3.80872 1.80612,5.32702 -0.0749,0.17943 -0.29395,1.16637 -2.44549,2.1338 -2.15154,0.96744 -9.06696,-2.22538 -10.25917,-1.0775 0,0 4.84186,2.51177 8.02611,2.97182 z"
       sodipodi:nodetypes="zzzccscszcz" />
    <path
       style="fill:#000000;fill-opacity:1;fill-rule:nonzero;stroke:none;stroke-width:0.264583"
       id="path9"
       d="m 108.61453,122.81109 c 6.42724,0.91481 13.0236,5.34816 13.0236,5.34816 5.2698,-0.64451 -0.95551,-4.75966 -3.52799,-6.27195 -2.57249,-1.5123 -6.08061,-2.05153 -9.27527,-2.59996 -3.19466,-0.54843 -7.73489,-0.22823 -10.453662,-0.18678 -3.551928,-0.0217 -5.034296,2.12254 -8.581885,2.30467 7.383425,5.27111 5.939714,-0.42676 18.815207,1.40586 z"
       sodipodi:nodetypes="zczzccz" />
    <path
       style="fill:#000000;fill-opacity:1;fill-rule:nonzero;stroke:none;stroke-width:0.264583"
       id="path10"
       d="m 103.17308,142.83392 c 2.00308,0.97819 5.40038,1.89813 8.81778,1.70546 3.4174,-0.19267 5.78136,-3.52931 5.78136,-3.52931 0,0 -4.37777,3.18014 -10.36003,2.06636 -5.98226,-1.11378 -7.27952,-5.90338 -11.374442,-6.52707 1.783616,1.67944 5.132242,5.30637 7.135332,6.28456 z"
       sodipodi:nodetypes="zzczcz" />
    <path
       style="fill:#000000;fill-opacity:1;fill-rule:nonzero;stroke:none;stroke-width:0.264583"
       id="path11"
       d="m 133.4617,146.29891 c 1.22266,0.87195 3.8903,1.44481 5.30695,0.98388 1.41665,-0.46093 2.13664,-2.55044 2.13664,-2.55044 l -3.33601,1.40854 c -2.10068,0.88696 -3.87434,-1.37197 -6.03637,-2.09859 0,0 0.70613,1.38465 1.92879,2.25661 z"
       sodipodi:nodetypes="zzcscz" />
    <path
       style="fill:#000000;fill-opacity:1;fill-rule:nonzero;stroke:none;stroke-width:0.264583"
       id="path12"
       d="m 134.8775,128.51396 c 2.97661,-0.19716 7.19619,-0.21689 10.14222,2.52055 0,0 1.35476,-1.47777 0.37634,-3.07469 -0.97842,-1.59692 -7.64692,-2.78794 -7.64692,-2.78794 -2.8117,-1.0251 -4.40639,2.50688 -7.40666,2.54448 z"
       sodipodi:nodetypes="cczscc" />
    <path
       style="fill:#000000;fill-opacity:1;fill-rule:nonzero;stroke:none;stroke-width:0.264583"
       id="path13"
       d="m 152.13796,101.3729 c -0.11632,0.59657 0.95246,6.18895 0.7452,6.75873 -0.16415,0.42894 -0.3894,2.69519 -0.53006,3.13221 -0.0777,0.3371 -0.18379,0.66173 -0.30014,0.98709 -0.17117,0.4789 -0.41492,0.9294 -0.64162,1.38401 -0.26219,0.56503 -0.48071,1.15011 -0.71283,1.72829 -0.18644,0.49262 -0.3172,1.00368 -0.49305,1.49958 -0.13181,0.38895 -0.25785,0.77986 -0.39122,1.16827 -0.11173,0.29923 -0.22953,0.59525 -0.34272,0.89394 -0.27579,0.59746 -0.5179,1.20932 -0.77023,1.8169 -0.26911,0.68538 -0.54721,1.36773 -0.7917,2.06241 -0.24925,0.61013 -0.54146,1.20025 -0.78989,1.81101 -0.29399,0.80111 0.30576,0.77779 -0.0578,1.54883 -0.0338,3.47201 -4.89184,6.80897 -5.10615,9.01299 -0.027,3.10788 -0.25985,1.40917 -0.30128,6.70006 -0.0414,5.29089 -1.27946,6.01361 -1.68056,7.5971 -0.48578,1.38662 -0.63954,1.77764 -1.15187,2.15152 -0.50501,1.33192 -1.03366,2.65558 -1.60198,3.96184 -0.24107,0.52351 -0.449,1.05918 -0.64144,1.602 -0.0649,0.25509 -0.16675,0.4981 -0.24655,0.74811 -0.0467,0.16696 -0.0605,0.3381 -0.10133,0.50684 -0.10817,0.44558 -0.21231,0.89087 -0.34046,1.3313 -0.21447,0.63581 -0.17108,2.22782 -0.38317,2.86458 -1.39189,0.69012 -1.19516,-0.005 -2.65974,0.95385 -0.87136,0.57046 0.65241,3.22384 0.31062,6.9147 -0.19607,0.44755 -2.63597,3.86418 -2.84847,4.3038 -0.35517,0.66453 -0.62373,1.37141 -0.91194,2.0665 -0.3073,0.82794 -0.64532,1.64155 -1.02746,2.43746 -0.28285,0.57348 -0.43725,1.19436 -0.67878,1.78469 -0.15976,0.38498 -0.33062,0.76656 -0.46932,1.15977 -0.13376,0.31477 -0.29834,0.61505 -0.44908,0.92218 -0.10762,0.15446 -0.21159,0.51731 -0.36522,0.62883 -0.0453,0.0329 -0.10261,0.0448 -0.15491,0.0647 -0.9058,0.34504 -1.4635,1.65577 -4.47227,2.3828 -2.91116,0.72523 -5.50487,-0.57708 -8.48397,-0.41712 -0.0997,0.006 -0.19933,0.0122 -0.29918,0.0159 4.15607,2.26994 5.00066,2.2494 9.50944,1.79511 0.9511,-0.11541 1.92337,-0.18917 2.83279,-0.51072 1.24847,-0.40022 2.52542,-0.69264 3.79861,-1.00158 0.29111,-0.10793 0.43644,-0.12641 0.66406,-0.33276 0.14208,-0.12881 0.25135,-0.51924 0.37027,-0.68024 0.1753,-0.31289 0.34962,-0.62717 0.48623,-0.95937 0.15193,-0.38927 0.26209,-0.79221 0.41267,-1.18203 0.22551,-0.59081 0.42097,-1.19271 0.67549,-1.77235 0.31941,-0.826 0.63673,-1.65276 0.96257,-2.47624 0.2989,-0.68249 0.62439,-1.35299 0.99944,-1.99737 0.20965,-0.43989 -0.61868,-1.02695 -0.41422,-1.46933 0.23401,-0.49103 1.37393,-1.27416 1.55713,-1.78806 0.30962,-1.02609 1.64746,-4.00887 0.62904,-6.58448 0.64655,-1.69245 -0.55951,1.04641 3.10164,-3.36758 0.22943,-0.63276 0.0616,-0.75925 0.48671,-3.24405 0.42506,-2.48479 0.7905,-2.50038 1.13347,-4.05289 0.34297,-1.5525 2.13047,-4.59445 2.62032,-5.94162 0.59148,-1.661 0.78292,-3.37748 0.75533,-5.77222 -0.0276,-2.39474 0.64349,-7.57925 2.27003,-10.20619 6.88379,-9.71627 3.65276,-9.81228 5.83249,-14.61242 1.5465,-2.98647 4.91685,-6.0372 5.12125,-9.56833 0.2044,-3.53113 -4.66423,-8.76095 -4.66423,-8.76095 z"
       sodipodi:nodetypes="ccccccccccccczzccccccccscccccccssccccccscccccccccczzczcczc" />
    <path
       style="fill:#000000;fill-opacity:1;fill-rule:nonzero;stroke:none;stroke-width:0.264583"
       id="path14"
       d="m 127.74156,185.77248 c -0.083,0.32778 -0.18591,0.65328 -0.31499,0.9661 -0.0876,0.21388 -0.1535,0.43602 -0.1876,0.66462 -0.0295,0.13263 -0.0768,0.26238 -0.11778,0.39249 -0.36556,0.37283 -0.81042,0.66326 -1.2564,0.93093 -0.68002,0.44518 -4.24653,2.12549 -6.28903,2.26377 -2.0425,0.13827 -0.37314,0.0668 -6.4714,0.17615 -0.35757,0.002 -0.19932,0.0197 -0.47662,-0.0314 3.18118,2.94707 7.71629,2.16567 10.29168,1.4581 2.57539,-0.70757 2.47882,-0.66914 3.73402,-0.93789 0.85331,-0.18213 1.75844,-0.31127 2.48613,-0.82638 0.4831,-0.33866 1.00011,-0.64969 1.41115,-1.07583 0.29338,-0.47192 0.0433,-0.26899 0.20439,-0.51354 0.27524,-1.01785 0.45328,-2.02426 0.59296,-3.11074 0.38973,-3.10765 -3.60651,-0.35638 -3.60651,-0.35638 z"
       sodipodi:nodetypes="ccccczcczcccczc" />
    <path
       style="fill:#000000;fill-opacity:1;fill-rule:nonzero;stroke:none;stroke-width:0.264583"
       id="path15"
       d="m 127.09592,188.2761 c -0.009,0.85691 -0.0214,1.71355 -0.0419,2.57028 2.40163,15.58142 4.69538,21.3556 6.69269,28.82816 1.99731,7.47256 4.4156,21.74421 9.01499,28.48731 0.13999,0.25411 0.37583,0.4646 0.46383,0.74685 0.0327,0.10493 0.0512,0.21377 0.0768,0.32066 0.0526,0.35435 0.0489,0.71243 0.0353,1.0692 -0.007,0.17551 -0.009,0.34773 -0.0532,0.51907 -0.0211,0.081 -0.0566,0.15741 -0.085,0.23612 -0.17915,0.37174 -0.39407,0.75669 -0.72266,1.02003 -0.0756,0.0606 -0.16111,0.10768 -0.24167,0.16152 -5.9309,3.43637 -31.86281,8.34559 -47.406148,7.78251 -15.543338,-0.56308 -32.722105,-4.46419 -50.011483,-13.58149 0,0 -6.529289,-13.57361 -7.400356,-14.38497 -0.871067,-0.81137 4.021138,12.08495 4.803849,16.49221 18.575553,17.1015 51.531662,15.43689 51.531662,15.43689 13.444866,0.26045 39.257416,-2.95405 51.743446,-9.66252 1.72027,-1.36948 1.44865,-2.02042 1.27466,-3.38055 -0.0937,-1.79967 -2.27046,-1.47688 -9.97752,-32.5811 -3.59223,-14.4976 -5.93946,-23.41475 -6.35474,-25.77774 -0.41528,-2.36299 -0.17386,-2.47024 -0.0263,-3.27939 z"
       sodipodi:nodetypes="cczcsccccsczcsccczzzcc" />
    <path
       style="fill:#000000;fill-opacity:1;fill-rule:nonzero;stroke:none;stroke-width:0.264583"
       id="path16"
       d="M 42.497114,91.575013 C 56.90506,84.02532 81.349957,77.613596 104.43608,78.328267 c 19.23101,-0.432372 26.65238,4.058409 31.61349,6.513766 4.96112,2.455357 9.14459,6.210149 12.44586,13.374394 0.24254,0.549117 0.56597,1.05495 0.88417,1.561719 l 2.29272,2.687314 4.02231,5.12845 c 0.3606,0.45976 1.50166,-1.56962 -1.81188,-6.42714 -3.31353,-4.85752 -3.68537,-3.635049 -3.99677,-4.852577 -12.78594,-18.46551 -18.7728,-15.817388 -30.03507,-19.21289 -22.29785,-1.047407 -21.196966,-1.47203 -33.508632,0.2508 -14.710096,2.507175 -19.823895,2.7411 -25.447102,4.663291 -5.620948,1.921419 -12.073758,1.027894 -21.50191,6.592296 z"
       sodipodi:nodetypes="czzcccszccczcc" />
    <path
       style="fill:#000000;fill-opacity:1;fill-rule:nonzero;stroke:none;stroke-width:0.264583"
       id="path17"
       d="M 39.50615,88.535079 C 28.703114,100.0465 16.644007,143.95638 17.125336,158.87919 c 3.184173,17.69089 14.538561,60.38691 25.10269,89.32011 0.02962,1.28296 -0.04987,-0.23503 3.20682,0.37331 -1.582245,-4.59603 -2.239078,-7.56814 -3.118554,-9.50751 -0.879476,-1.93937 -20.808287,-65.89735 -22.541372,-78.49934 -1.733085,-12.60199 7.143201,-45.27181 23.606199,-69.881228 z"
       sodipodi:nodetypes="cccczzcc" />
    <path
       style="fill:#502d16;fill-opacity:1;fill-rule:nonzero;stroke:none;stroke-width:0.264583"
       id="path18"
       d="m 44.252083,91.147941 c -1.691466,1.019209 -5.430528,6.128757 -3.678775,7.237636 3.989853,-8.637713 2.930627,-5.923949 15.216091,2.386043 11.999865,4.04893 35.331711,6.53139 50.854281,7.38714 7.76128,0.42788 51.53579,-12.232181 45.12848,3.31226 2.54033,-4.05162 1.61516,-0.99915 2.24361,-5.35725 -6.44963,-8.867331 -42.70925,2.18923 -60.707457,-0.60222 -6.814859,-0.15066 -24.126959,-2.64747 -34.309095,-5.872556 -10.142594,-3.212562 -11.77175,-10.2839 -14.747135,-8.491053 z"
       sodipodi:nodetypes="sccscccss" />
  </g>
</svg>
